<?xml version="1.0" encoding="utf-8" standalone="no"?>
<!DOCTYPE svg PUBLIC "-//W3C//DTD SVG 1.1//EN"
  "http://www.w3.org/Graphics/SVG/1.1/DTD/svg11.dtd">
<!-- Created with matplotlib (https://matplotlib.org/) -->
<svg height="846.478125pt" version="1.1" viewBox="0 0 900.70625 846.478125" width="900.70625pt" xmlns="http://www.w3.org/2000/svg" xmlns:xlink="http://www.w3.org/1999/xlink">
 <metadata>
  <rdf:RDF xmlns:cc="http://creativecommons.org/ns#" xmlns:dc="http://purl.org/dc/elements/1.1/" xmlns:rdf="http://www.w3.org/1999/02/22-rdf-syntax-ns#">
   <cc:Work>
    <dc:type rdf:resource="http://purl.org/dc/dcmitype/StillImage"/>
    <dc:date>2021-01-10T16:14:10.974087</dc:date>
    <dc:format>image/svg+xml</dc:format>
    <dc:creator>
     <cc:Agent>
      <dc:title>Matplotlib v3.3.3, https://matplotlib.org/</dc:title>
     </cc:Agent>
    </dc:creator>
   </cc:Work>
  </rdf:RDF>
 </metadata>
 <defs>
  <style type="text/css">*{stroke-linecap:butt;stroke-linejoin:round;}</style>
 </defs>
 <g id="figure_1">
  <g id="patch_1">
   <path d="M 0 846.478125 
L 900.70625 846.478125 
L 900.70625 0 
L 0 0 
z
" style="fill:none;"/>
  </g>
  <g id="axes_1">
   <g id="patch_2">
    <path d="M 56.50625 377.836364 
L 238.462772 377.836364 
L 238.462772 7.2 
L 56.50625 7.2 
z
" style="fill:#ffffff;"/>
   </g>
   <g id="matplotlib.axis_1">
    <g id="xtick_1">
     <g id="line2d_1">
      <defs>
       <path d="M 0 0 
L 0 3.5 
" id="m8f8cb4360e" style="stroke:#000000;stroke-width:0.8;"/>
      </defs>
      <g>
       <use style="stroke:#000000;stroke-width:0.8;" x="60.487392" xlink:href="#m8f8cb4360e" y="377.836364"/>
      </g>
     </g>
     <g id="text_1">
      <!-- 0 -->
      <g transform="translate(57.306142 392.434801)scale(0.1 -0.1)">
       <defs>
        <path d="M 31.78125 66.40625 
Q 24.171875 66.40625 20.328125 58.90625 
Q 16.5 51.421875 16.5 36.375 
Q 16.5 21.390625 20.328125 13.890625 
Q 24.171875 6.390625 31.78125 6.390625 
Q 39.453125 6.390625 43.28125 13.890625 
Q 47.125 21.390625 47.125 36.375 
Q 47.125 51.421875 43.28125 58.90625 
Q 39.453125 66.40625 31.78125 66.40625 
z
M 31.78125 74.21875 
Q 44.046875 74.21875 50.515625 64.515625 
Q 56.984375 54.828125 56.984375 36.375 
Q 56.984375 17.96875 50.515625 8.265625 
Q 44.046875 -1.421875 31.78125 -1.421875 
Q 19.53125 -1.421875 13.0625 8.265625 
Q 6.59375 17.96875 6.59375 36.375 
Q 6.59375 54.828125 13.0625 64.515625 
Q 19.53125 74.21875 31.78125 74.21875 
z
" id="DejaVuSans-48"/>
       </defs>
       <use xlink:href="#DejaVuSans-48"/>
      </g>
     </g>
    </g>
    <g id="xtick_2">
     <g id="line2d_2">
      <g>
       <use style="stroke:#000000;stroke-width:0.8;" x="108.685242" xlink:href="#m8f8cb4360e" y="377.836364"/>
      </g>
     </g>
     <g id="text_2">
      <!-- 20 -->
      <g transform="translate(102.322742 392.434801)scale(0.1 -0.1)">
       <defs>
        <path d="M 19.1875 8.296875 
L 53.609375 8.296875 
L 53.609375 0 
L 7.328125 0 
L 7.328125 8.296875 
Q 12.9375 14.109375 22.625 23.890625 
Q 32.328125 33.6875 34.8125 36.53125 
Q 39.546875 41.84375 41.421875 45.53125 
Q 43.3125 49.21875 43.3125 52.78125 
Q 43.3125 58.59375 39.234375 62.25 
Q 35.15625 65.921875 28.609375 65.921875 
Q 23.96875 65.921875 18.8125 64.3125 
Q 13.671875 62.703125 7.8125 59.421875 
L 7.8125 69.390625 
Q 13.765625 71.78125 18.9375 73 
Q 24.125 74.21875 28.421875 74.21875 
Q 39.75 74.21875 46.484375 68.546875 
Q 53.21875 62.890625 53.21875 53.421875 
Q 53.21875 48.921875 51.53125 44.890625 
Q 49.859375 40.875 45.40625 35.40625 
Q 44.1875 33.984375 37.640625 27.21875 
Q 31.109375 20.453125 19.1875 8.296875 
z
" id="DejaVuSans-50"/>
       </defs>
       <use xlink:href="#DejaVuSans-50"/>
       <use x="63.623047" xlink:href="#DejaVuSans-48"/>
      </g>
     </g>
    </g>
    <g id="xtick_3">
     <g id="line2d_3">
      <g>
       <use style="stroke:#000000;stroke-width:0.8;" x="156.883092" xlink:href="#m8f8cb4360e" y="377.836364"/>
      </g>
     </g>
     <g id="text_3">
      <!-- 40 -->
      <g transform="translate(150.520592 392.434801)scale(0.1 -0.1)">
       <defs>
        <path d="M 37.796875 64.3125 
L 12.890625 25.390625 
L 37.796875 25.390625 
z
M 35.203125 72.90625 
L 47.609375 72.90625 
L 47.609375 25.390625 
L 58.015625 25.390625 
L 58.015625 17.1875 
L 47.609375 17.1875 
L 47.609375 0 
L 37.796875 0 
L 37.796875 17.1875 
L 4.890625 17.1875 
L 4.890625 26.703125 
z
" id="DejaVuSans-52"/>
       </defs>
       <use xlink:href="#DejaVuSans-52"/>
       <use x="63.623047" xlink:href="#DejaVuSans-48"/>
      </g>
     </g>
    </g>
    <g id="xtick_4">
     <g id="line2d_4">
      <g>
       <use style="stroke:#000000;stroke-width:0.8;" x="205.080941" xlink:href="#m8f8cb4360e" y="377.836364"/>
      </g>
     </g>
     <g id="text_4">
      <!-- 60 -->
      <g transform="translate(198.718441 392.434801)scale(0.1 -0.1)">
       <defs>
        <path d="M 33.015625 40.375 
Q 26.375 40.375 22.484375 35.828125 
Q 18.609375 31.296875 18.609375 23.390625 
Q 18.609375 15.53125 22.484375 10.953125 
Q 26.375 6.390625 33.015625 6.390625 
Q 39.65625 6.390625 43.53125 10.953125 
Q 47.40625 15.53125 47.40625 23.390625 
Q 47.40625 31.296875 43.53125 35.828125 
Q 39.65625 40.375 33.015625 40.375 
z
M 52.59375 71.296875 
L 52.59375 62.3125 
Q 48.875 64.0625 45.09375 64.984375 
Q 41.3125 65.921875 37.59375 65.921875 
Q 27.828125 65.921875 22.671875 59.328125 
Q 17.53125 52.734375 16.796875 39.40625 
Q 19.671875 43.65625 24.015625 45.921875 
Q 28.375 48.1875 33.59375 48.1875 
Q 44.578125 48.1875 50.953125 41.515625 
Q 57.328125 34.859375 57.328125 23.390625 
Q 57.328125 12.15625 50.6875 5.359375 
Q 44.046875 -1.421875 33.015625 -1.421875 
Q 20.359375 -1.421875 13.671875 8.265625 
Q 6.984375 17.96875 6.984375 36.375 
Q 6.984375 53.65625 15.1875 63.9375 
Q 23.390625 74.21875 37.203125 74.21875 
Q 40.921875 74.21875 44.703125 73.484375 
Q 48.484375 72.75 52.59375 71.296875 
z
" id="DejaVuSans-54"/>
       </defs>
       <use xlink:href="#DejaVuSans-54"/>
       <use x="63.623047" xlink:href="#DejaVuSans-48"/>
      </g>
     </g>
    </g>
   </g>
   <g id="matplotlib.axis_2">
    <g id="ytick_1">
     <g id="line2d_5">
      <defs>
       <path d="M 0 0 
L -3.5 0 
" id="m6d273ca9f3" style="stroke:#000000;stroke-width:0.8;"/>
      </defs>
      <g>
       <use style="stroke:#000000;stroke-width:0.8;" x="56.50625" xlink:href="#m6d273ca9f3" y="324.643598"/>
      </g>
     </g>
     <g id="text_5">
      <!-- 0.005 -->
      <g transform="translate(20.878125 328.442816)scale(0.1 -0.1)">
       <defs>
        <path d="M 10.6875 12.40625 
L 21 12.40625 
L 21 0 
L 10.6875 0 
z
" id="DejaVuSans-46"/>
        <path d="M 10.796875 72.90625 
L 49.515625 72.90625 
L 49.515625 64.59375 
L 19.828125 64.59375 
L 19.828125 46.734375 
Q 21.96875 47.46875 24.109375 47.828125 
Q 26.265625 48.1875 28.421875 48.1875 
Q 40.625 48.1875 47.75 41.5 
Q 54.890625 34.8125 54.890625 23.390625 
Q 54.890625 11.625 47.5625 5.09375 
Q 40.234375 -1.421875 26.90625 -1.421875 
Q 22.3125 -1.421875 17.546875 -0.640625 
Q 12.796875 0.140625 7.71875 1.703125 
L 7.71875 11.625 
Q 12.109375 9.234375 16.796875 8.0625 
Q 21.484375 6.890625 26.703125 6.890625 
Q 35.15625 6.890625 40.078125 11.328125 
Q 45.015625 15.765625 45.015625 23.390625 
Q 45.015625 31 40.078125 35.4375 
Q 35.15625 39.890625 26.703125 39.890625 
Q 22.75 39.890625 18.8125 39.015625 
Q 14.890625 38.140625 10.796875 36.28125 
z
" id="DejaVuSans-53"/>
       </defs>
       <use xlink:href="#DejaVuSans-48"/>
       <use x="63.623047" xlink:href="#DejaVuSans-46"/>
       <use x="95.410156" xlink:href="#DejaVuSans-48"/>
       <use x="159.033203" xlink:href="#DejaVuSans-48"/>
       <use x="222.65625" xlink:href="#DejaVuSans-53"/>
      </g>
     </g>
    </g>
    <g id="ytick_2">
     <g id="line2d_6">
      <g>
       <use style="stroke:#000000;stroke-width:0.8;" x="56.50625" xlink:href="#m6d273ca9f3" y="260.206685"/>
      </g>
     </g>
     <g id="text_6">
      <!-- 0.010 -->
      <g transform="translate(20.878125 264.005904)scale(0.1 -0.1)">
       <defs>
        <path d="M 12.40625 8.296875 
L 28.515625 8.296875 
L 28.515625 63.921875 
L 10.984375 60.40625 
L 10.984375 69.390625 
L 28.421875 72.90625 
L 38.28125 72.90625 
L 38.28125 8.296875 
L 54.390625 8.296875 
L 54.390625 0 
L 12.40625 0 
z
" id="DejaVuSans-49"/>
       </defs>
       <use xlink:href="#DejaVuSans-48"/>
       <use x="63.623047" xlink:href="#DejaVuSans-46"/>
       <use x="95.410156" xlink:href="#DejaVuSans-48"/>
       <use x="159.033203" xlink:href="#DejaVuSans-49"/>
       <use x="222.65625" xlink:href="#DejaVuSans-48"/>
      </g>
     </g>
    </g>
    <g id="ytick_3">
     <g id="line2d_7">
      <g>
       <use style="stroke:#000000;stroke-width:0.8;" x="56.50625" xlink:href="#m6d273ca9f3" y="195.769773"/>
      </g>
     </g>
     <g id="text_7">
      <!-- 0.015 -->
      <g transform="translate(20.878125 199.568992)scale(0.1 -0.1)">
       <use xlink:href="#DejaVuSans-48"/>
       <use x="63.623047" xlink:href="#DejaVuSans-46"/>
       <use x="95.410156" xlink:href="#DejaVuSans-48"/>
       <use x="159.033203" xlink:href="#DejaVuSans-49"/>
       <use x="222.65625" xlink:href="#DejaVuSans-53"/>
      </g>
     </g>
    </g>
    <g id="ytick_4">
     <g id="line2d_8">
      <g>
       <use style="stroke:#000000;stroke-width:0.8;" x="56.50625" xlink:href="#m6d273ca9f3" y="131.332861"/>
      </g>
     </g>
     <g id="text_8">
      <!-- 0.020 -->
      <g transform="translate(20.878125 135.132079)scale(0.1 -0.1)">
       <use xlink:href="#DejaVuSans-48"/>
       <use x="63.623047" xlink:href="#DejaVuSans-46"/>
       <use x="95.410156" xlink:href="#DejaVuSans-48"/>
       <use x="159.033203" xlink:href="#DejaVuSans-50"/>
       <use x="222.65625" xlink:href="#DejaVuSans-48"/>
      </g>
     </g>
    </g>
    <g id="ytick_5">
     <g id="line2d_9">
      <g>
       <use style="stroke:#000000;stroke-width:0.8;" x="56.50625" xlink:href="#m6d273ca9f3" y="66.895948"/>
      </g>
     </g>
     <g id="text_9">
      <!-- 0.025 -->
      <g transform="translate(20.878125 70.695167)scale(0.1 -0.1)">
       <use xlink:href="#DejaVuSans-48"/>
       <use x="63.623047" xlink:href="#DejaVuSans-46"/>
       <use x="95.410156" xlink:href="#DejaVuSans-48"/>
       <use x="159.033203" xlink:href="#DejaVuSans-50"/>
       <use x="222.65625" xlink:href="#DejaVuSans-53"/>
      </g>
     </g>
    </g>
    <g id="text_10">
     <!-- Density -->
     <g transform="translate(14.798438 211.526776)rotate(-90)scale(0.1 -0.1)">
      <defs>
       <path d="M 19.671875 64.796875 
L 19.671875 8.109375 
L 31.59375 8.109375 
Q 46.6875 8.109375 53.6875 14.9375 
Q 60.6875 21.78125 60.6875 36.53125 
Q 60.6875 51.171875 53.6875 57.984375 
Q 46.6875 64.796875 31.59375 64.796875 
z
M 9.8125 72.90625 
L 30.078125 72.90625 
Q 51.265625 72.90625 61.171875 64.09375 
Q 71.09375 55.28125 71.09375 36.53125 
Q 71.09375 17.671875 61.125 8.828125 
Q 51.171875 0 30.078125 0 
L 9.8125 0 
z
" id="DejaVuSans-68"/>
       <path d="M 56.203125 29.59375 
L 56.203125 25.203125 
L 14.890625 25.203125 
Q 15.484375 15.921875 20.484375 11.0625 
Q 25.484375 6.203125 34.421875 6.203125 
Q 39.59375 6.203125 44.453125 7.46875 
Q 49.3125 8.734375 54.109375 11.28125 
L 54.109375 2.78125 
Q 49.265625 0.734375 44.1875 -0.34375 
Q 39.109375 -1.421875 33.890625 -1.421875 
Q 20.796875 -1.421875 13.15625 6.1875 
Q 5.515625 13.8125 5.515625 26.8125 
Q 5.515625 40.234375 12.765625 48.109375 
Q 20.015625 56 32.328125 56 
Q 43.359375 56 49.78125 48.890625 
Q 56.203125 41.796875 56.203125 29.59375 
z
M 47.21875 32.234375 
Q 47.125 39.59375 43.09375 43.984375 
Q 39.0625 48.390625 32.421875 48.390625 
Q 24.90625 48.390625 20.390625 44.140625 
Q 15.875 39.890625 15.1875 32.171875 
z
" id="DejaVuSans-101"/>
       <path d="M 54.890625 33.015625 
L 54.890625 0 
L 45.90625 0 
L 45.90625 32.71875 
Q 45.90625 40.484375 42.875 44.328125 
Q 39.84375 48.1875 33.796875 48.1875 
Q 26.515625 48.1875 22.3125 43.546875 
Q 18.109375 38.921875 18.109375 30.90625 
L 18.109375 0 
L 9.078125 0 
L 9.078125 54.6875 
L 18.109375 54.6875 
L 18.109375 46.1875 
Q 21.34375 51.125 25.703125 53.5625 
Q 30.078125 56 35.796875 56 
Q 45.21875 56 50.046875 50.171875 
Q 54.890625 44.34375 54.890625 33.015625 
z
" id="DejaVuSans-110"/>
       <path d="M 44.28125 53.078125 
L 44.28125 44.578125 
Q 40.484375 46.53125 36.375 47.5 
Q 32.28125 48.484375 27.875 48.484375 
Q 21.1875 48.484375 17.84375 46.4375 
Q 14.5 44.390625 14.5 40.28125 
Q 14.5 37.15625 16.890625 35.375 
Q 19.28125 33.59375 26.515625 31.984375 
L 29.59375 31.296875 
Q 39.15625 29.25 43.1875 25.515625 
Q 47.21875 21.78125 47.21875 15.09375 
Q 47.21875 7.46875 41.1875 3.015625 
Q 35.15625 -1.421875 24.609375 -1.421875 
Q 20.21875 -1.421875 15.453125 -0.5625 
Q 10.6875 0.296875 5.421875 2 
L 5.421875 11.28125 
Q 10.40625 8.6875 15.234375 7.390625 
Q 20.0625 6.109375 24.8125 6.109375 
Q 31.15625 6.109375 34.5625 8.28125 
Q 37.984375 10.453125 37.984375 14.40625 
Q 37.984375 18.0625 35.515625 20.015625 
Q 33.0625 21.96875 24.703125 23.78125 
L 21.578125 24.515625 
Q 13.234375 26.265625 9.515625 29.90625 
Q 5.8125 33.546875 5.8125 39.890625 
Q 5.8125 47.609375 11.28125 51.796875 
Q 16.75 56 26.8125 56 
Q 31.78125 56 36.171875 55.265625 
Q 40.578125 54.546875 44.28125 53.078125 
z
" id="DejaVuSans-115"/>
       <path d="M 9.421875 54.6875 
L 18.40625 54.6875 
L 18.40625 0 
L 9.421875 0 
z
M 9.421875 75.984375 
L 18.40625 75.984375 
L 18.40625 64.59375 
L 9.421875 64.59375 
z
" id="DejaVuSans-105"/>
       <path d="M 18.3125 70.21875 
L 18.3125 54.6875 
L 36.8125 54.6875 
L 36.8125 47.703125 
L 18.3125 47.703125 
L 18.3125 18.015625 
Q 18.3125 11.328125 20.140625 9.421875 
Q 21.96875 7.515625 27.59375 7.515625 
L 36.8125 7.515625 
L 36.8125 0 
L 27.59375 0 
Q 17.1875 0 13.234375 3.875 
Q 9.28125 7.765625 9.28125 18.015625 
L 9.28125 47.703125 
L 2.6875 47.703125 
L 2.6875 54.6875 
L 9.28125 54.6875 
L 9.28125 70.21875 
z
" id="DejaVuSans-116"/>
       <path d="M 32.171875 -5.078125 
Q 28.375 -14.84375 24.75 -17.8125 
Q 21.140625 -20.796875 15.09375 -20.796875 
L 7.90625 -20.796875 
L 7.90625 -13.28125 
L 13.1875 -13.28125 
Q 16.890625 -13.28125 18.9375 -11.515625 
Q 21 -9.765625 23.484375 -3.21875 
L 25.09375 0.875 
L 2.984375 54.6875 
L 12.5 54.6875 
L 29.59375 11.921875 
L 46.6875 54.6875 
L 56.203125 54.6875 
z
" id="DejaVuSans-121"/>
      </defs>
      <use xlink:href="#DejaVuSans-68"/>
      <use x="77.001953" xlink:href="#DejaVuSans-101"/>
      <use x="138.525391" xlink:href="#DejaVuSans-110"/>
      <use x="201.904297" xlink:href="#DejaVuSans-115"/>
      <use x="254.003906" xlink:href="#DejaVuSans-105"/>
      <use x="281.787109" xlink:href="#DejaVuSans-116"/>
      <use x="320.996094" xlink:href="#DejaVuSans-121"/>
     </g>
    </g>
   </g>
   <g id="line2d_10">
    <path clip-path="url(#pac3d898b18)" d="M 64.777001 353.381561 
L 66.432807 346.477698 
L 68.088613 338.592915 
L 69.744419 329.665699 
L 71.565806 318.583819 
L 73.387192 306.139613 
L 75.374159 290.996838 
L 77.526707 272.785888 
L 79.844836 251.209385 
L 82.494125 224.393657 
L 85.971318 186.699825 
L 93.091284 108.747829 
L 95.574993 84.41079 
L 97.56196 67.095205 
L 99.217766 54.498249 
L 100.707991 44.803252 
L 102.032636 37.623599 
L 103.1917 32.528634 
L 104.185184 29.084577 
L 105.013087 26.885199 
L 105.84099 25.307698 
L 106.503312 24.498951 
L 107.000054 24.158596 
L 107.496796 24.047107 
L 107.993538 24.164633 
L 108.490279 24.510882 
L 109.152602 25.327021 
L 109.814924 26.54551 
L 110.642827 28.627765 
L 111.47073 31.320577 
L 112.464214 35.33726 
L 113.623278 41.066516 
L 114.947923 48.916291 
L 116.438148 59.28111 
L 118.093954 72.499267 
L 120.080922 90.361861 
L 122.39905 113.32523 
L 125.876243 150.296583 
L 131.505983 210.137064 
L 134.155273 235.757858 
L 136.30782 254.515577 
L 138.294788 269.852054 
L 139.950594 281.015445 
L 141.440819 289.717709 
L 142.931044 297.090108 
L 144.255689 302.496045 
L 145.414753 306.326154 
L 146.408237 308.93543 
L 147.401721 310.921659 
L 148.229624 312.101835 
L 148.891946 312.736434 
L 149.554268 313.09752 
L 150.216591 313.187062 
L 150.878913 313.007456 
L 151.541236 312.561522 
L 152.203558 311.852496 
L 153.031461 310.601849 
L 153.859364 308.953915 
L 154.852848 306.464829 
L 156.011912 302.878081 
L 157.336557 297.917763 
L 158.661201 292.090775 
L 160.151427 284.575838 
L 161.972813 274.150549 
L 163.959781 261.447651 
L 166.44349 244.064634 
L 170.417424 214.357344 
L 174.556939 183.824765 
L 176.875067 168.238327 
L 178.862035 156.340645 
L 180.517841 147.72956 
L 182.008066 141.155208 
L 183.332711 136.343356 
L 184.491775 132.985567 
L 185.485259 130.770247 
L 186.313162 129.405459 
L 187.141065 128.486654 
L 187.803387 128.076417 
L 188.465709 127.956737 
L 189.128032 128.128249 
L 189.790354 128.590582 
L 190.452677 129.342366 
L 191.28058 130.685453 
L 192.108483 132.470315 
L 193.101966 135.182395 
L 194.26103 139.107182 
L 195.420095 143.8138 
L 196.744739 150.090365 
L 198.234965 158.199925 
L 200.056351 169.437812 
L 202.208899 184.266731 
L 204.858189 204.181191 
L 209.825607 243.655854 
L 213.799541 274.404038 
L 216.614412 294.502368 
L 219.098121 310.620924 
L 221.250668 323.196524 
L 223.237636 333.594557 
L 225.224603 342.820858 
L 227.045989 350.269739 
L 228.867376 356.794194 
L 230.192021 360.989256 
L 230.192021 360.989256 
" style="fill:none;stroke:#1f77b4;stroke-linecap:square;stroke-width:1.5;"/>
   </g>
   <g id="patch_3">
    <path d="M 56.50625 377.836364 
L 56.50625 7.2 
" style="fill:none;stroke:#000000;stroke-linecap:square;stroke-linejoin:miter;stroke-width:0.8;"/>
   </g>
   <g id="patch_4">
    <path d="M 238.462772 377.836364 
L 238.462772 7.2 
" style="fill:none;stroke:#000000;stroke-linecap:square;stroke-linejoin:miter;stroke-width:0.8;"/>
   </g>
   <g id="patch_5">
    <path d="M 56.50625 377.836364 
L 238.462772 377.836364 
" style="fill:none;stroke:#000000;stroke-linecap:square;stroke-linejoin:miter;stroke-width:0.8;"/>
   </g>
   <g id="patch_6">
    <path d="M 56.50625 7.2 
L 238.462772 7.2 
" style="fill:none;stroke:#000000;stroke-linecap:square;stroke-linejoin:miter;stroke-width:0.8;"/>
   </g>
   <g id="legend_1">
    <g id="patch_7">
     <path d="M 134.850272 30.15625 
L 231.462772 30.15625 
Q 233.462772 30.15625 233.462772 28.15625 
L 233.462772 14.2 
Q 233.462772 12.2 231.462772 12.2 
L 134.850272 12.2 
Q 132.850272 12.2 132.850272 14.2 
L 132.850272 28.15625 
Q 132.850272 30.15625 134.850272 30.15625 
z
" style="fill:#ffffff;opacity:0.8;stroke:#cccccc;stroke-linejoin:miter;"/>
    </g>
    <g id="line2d_11">
     <path d="M 136.850272 20.298437 
L 156.850272 20.298437 
" style="fill:none;stroke:#1f77b4;stroke-linecap:square;stroke-width:1.5;"/>
    </g>
    <g id="line2d_12"/>
    <g id="text_11">
     <!-- HCSR04_001 -->
     <g transform="translate(164.850272 23.798437)scale(0.1 -0.1)">
      <defs>
       <path d="M 9.8125 72.90625 
L 19.671875 72.90625 
L 19.671875 43.015625 
L 55.515625 43.015625 
L 55.515625 72.90625 
L 65.375 72.90625 
L 65.375 0 
L 55.515625 0 
L 55.515625 34.71875 
L 19.671875 34.71875 
L 19.671875 0 
L 9.8125 0 
z
" id="DejaVuSans-72"/>
       <path d="M 64.40625 67.28125 
L 64.40625 56.890625 
Q 59.421875 61.53125 53.78125 63.8125 
Q 48.140625 66.109375 41.796875 66.109375 
Q 29.296875 66.109375 22.65625 58.46875 
Q 16.015625 50.828125 16.015625 36.375 
Q 16.015625 21.96875 22.65625 14.328125 
Q 29.296875 6.6875 41.796875 6.6875 
Q 48.140625 6.6875 53.78125 8.984375 
Q 59.421875 11.28125 64.40625 15.921875 
L 64.40625 5.609375 
Q 59.234375 2.09375 53.4375 0.328125 
Q 47.65625 -1.421875 41.21875 -1.421875 
Q 24.65625 -1.421875 15.125 8.703125 
Q 5.609375 18.84375 5.609375 36.375 
Q 5.609375 53.953125 15.125 64.078125 
Q 24.65625 74.21875 41.21875 74.21875 
Q 47.75 74.21875 53.53125 72.484375 
Q 59.328125 70.75 64.40625 67.28125 
z
" id="DejaVuSans-67"/>
       <path d="M 53.515625 70.515625 
L 53.515625 60.890625 
Q 47.90625 63.578125 42.921875 64.890625 
Q 37.9375 66.21875 33.296875 66.21875 
Q 25.25 66.21875 20.875 63.09375 
Q 16.5 59.96875 16.5 54.203125 
Q 16.5 49.359375 19.40625 46.890625 
Q 22.3125 44.4375 30.421875 42.921875 
L 36.375 41.703125 
Q 47.40625 39.59375 52.65625 34.296875 
Q 57.90625 29 57.90625 20.125 
Q 57.90625 9.515625 50.796875 4.046875 
Q 43.703125 -1.421875 29.984375 -1.421875 
Q 24.8125 -1.421875 18.96875 -0.25 
Q 13.140625 0.921875 6.890625 3.21875 
L 6.890625 13.375 
Q 12.890625 10.015625 18.65625 8.296875 
Q 24.421875 6.59375 29.984375 6.59375 
Q 38.421875 6.59375 43.015625 9.90625 
Q 47.609375 13.234375 47.609375 19.390625 
Q 47.609375 24.75 44.3125 27.78125 
Q 41.015625 30.8125 33.5 32.328125 
L 27.484375 33.5 
Q 16.453125 35.6875 11.515625 40.375 
Q 6.59375 45.0625 6.59375 53.421875 
Q 6.59375 63.09375 13.40625 68.65625 
Q 20.21875 74.21875 32.171875 74.21875 
Q 37.3125 74.21875 42.625 73.28125 
Q 47.953125 72.359375 53.515625 70.515625 
z
" id="DejaVuSans-83"/>
       <path d="M 44.390625 34.1875 
Q 47.5625 33.109375 50.5625 29.59375 
Q 53.5625 26.078125 56.59375 19.921875 
L 66.609375 0 
L 56 0 
L 46.6875 18.703125 
Q 43.0625 26.03125 39.671875 28.421875 
Q 36.28125 30.8125 30.421875 30.8125 
L 19.671875 30.8125 
L 19.671875 0 
L 9.8125 0 
L 9.8125 72.90625 
L 32.078125 72.90625 
Q 44.578125 72.90625 50.734375 67.671875 
Q 56.890625 62.453125 56.890625 51.90625 
Q 56.890625 45.015625 53.6875 40.46875 
Q 50.484375 35.9375 44.390625 34.1875 
z
M 19.671875 64.796875 
L 19.671875 38.921875 
L 32.078125 38.921875 
Q 39.203125 38.921875 42.84375 42.21875 
Q 46.484375 45.515625 46.484375 51.90625 
Q 46.484375 58.296875 42.84375 61.546875 
Q 39.203125 64.796875 32.078125 64.796875 
z
" id="DejaVuSans-82"/>
       <path d="M 50.984375 -16.609375 
L 50.984375 -23.578125 
L -0.984375 -23.578125 
L -0.984375 -16.609375 
z
" id="DejaVuSans-95"/>
      </defs>
      <use xlink:href="#DejaVuSans-72"/>
      <use x="75.195312" xlink:href="#DejaVuSans-67"/>
      <use x="145.019531" xlink:href="#DejaVuSans-83"/>
      <use x="208.496094" xlink:href="#DejaVuSans-82"/>
      <use x="277.978516" xlink:href="#DejaVuSans-48"/>
      <use x="341.601562" xlink:href="#DejaVuSans-52"/>
      <use x="405.224609" xlink:href="#DejaVuSans-95"/>
      <use x="455.224609" xlink:href="#DejaVuSans-48"/>
      <use x="518.847656" xlink:href="#DejaVuSans-48"/>
      <use x="582.470703" xlink:href="#DejaVuSans-49"/>
     </g>
    </g>
   </g>
  </g>
  <g id="axes_2">
   <g id="patch_8">
    <path d="M 274.854076 377.836364 
L 456.810598 377.836364 
L 456.810598 7.2 
L 274.854076 7.2 
z
" style="fill:#ffffff;"/>
   </g>
   <g id="matplotlib.axis_3">
    <g id="xtick_5">
     <g id="line2d_13">
      <g>
       <use style="stroke:#000000;stroke-width:0.8;" x="298.810734" xlink:href="#m8f8cb4360e" y="377.836364"/>
      </g>
     </g>
     <g id="text_12">
      <!-- 15 -->
      <g transform="translate(292.448234 392.434801)scale(0.1 -0.1)">
       <use xlink:href="#DejaVuSans-49"/>
       <use x="63.623047" xlink:href="#DejaVuSans-53"/>
      </g>
     </g>
    </g>
    <g id="xtick_6">
     <g id="line2d_14">
      <g>
       <use style="stroke:#000000;stroke-width:0.8;" x="346.343786" xlink:href="#m8f8cb4360e" y="377.836364"/>
      </g>
     </g>
     <g id="text_13">
      <!-- 16 -->
      <g transform="translate(339.981286 392.434801)scale(0.1 -0.1)">
       <use xlink:href="#DejaVuSans-49"/>
       <use x="63.623047" xlink:href="#DejaVuSans-54"/>
      </g>
     </g>
    </g>
    <g id="xtick_7">
     <g id="line2d_15">
      <g>
       <use style="stroke:#000000;stroke-width:0.8;" x="393.876837" xlink:href="#m8f8cb4360e" y="377.836364"/>
      </g>
     </g>
     <g id="text_14">
      <!-- 17 -->
      <g transform="translate(387.514337 392.434801)scale(0.1 -0.1)">
       <defs>
        <path d="M 8.203125 72.90625 
L 55.078125 72.90625 
L 55.078125 68.703125 
L 28.609375 0 
L 18.3125 0 
L 43.21875 64.59375 
L 8.203125 64.59375 
z
" id="DejaVuSans-55"/>
       </defs>
       <use xlink:href="#DejaVuSans-49"/>
       <use x="63.623047" xlink:href="#DejaVuSans-55"/>
      </g>
     </g>
    </g>
    <g id="xtick_8">
     <g id="line2d_16">
      <g>
       <use style="stroke:#000000;stroke-width:0.8;" x="441.409889" xlink:href="#m8f8cb4360e" y="377.836364"/>
      </g>
     </g>
     <g id="text_15">
      <!-- 18 -->
      <g transform="translate(435.047389 392.434801)scale(0.1 -0.1)">
       <defs>
        <path d="M 31.78125 34.625 
Q 24.75 34.625 20.71875 30.859375 
Q 16.703125 27.09375 16.703125 20.515625 
Q 16.703125 13.921875 20.71875 10.15625 
Q 24.75 6.390625 31.78125 6.390625 
Q 38.8125 6.390625 42.859375 10.171875 
Q 46.921875 13.96875 46.921875 20.515625 
Q 46.921875 27.09375 42.890625 30.859375 
Q 38.875 34.625 31.78125 34.625 
z
M 21.921875 38.8125 
Q 15.578125 40.375 12.03125 44.71875 
Q 8.5 49.078125 8.5 55.328125 
Q 8.5 64.0625 14.71875 69.140625 
Q 20.953125 74.21875 31.78125 74.21875 
Q 42.671875 74.21875 48.875 69.140625 
Q 55.078125 64.0625 55.078125 55.328125 
Q 55.078125 49.078125 51.53125 44.71875 
Q 48 40.375 41.703125 38.8125 
Q 48.828125 37.15625 52.796875 32.3125 
Q 56.78125 27.484375 56.78125 20.515625 
Q 56.78125 9.90625 50.3125 4.234375 
Q 43.84375 -1.421875 31.78125 -1.421875 
Q 19.734375 -1.421875 13.25 4.234375 
Q 6.78125 9.90625 6.78125 20.515625 
Q 6.78125 27.484375 10.78125 32.3125 
Q 14.796875 37.15625 21.921875 38.8125 
z
M 18.3125 54.390625 
Q 18.3125 48.734375 21.84375 45.5625 
Q 25.390625 42.390625 31.78125 42.390625 
Q 38.140625 42.390625 41.71875 45.5625 
Q 45.3125 48.734375 45.3125 54.390625 
Q 45.3125 60.0625 41.71875 63.234375 
Q 38.140625 66.40625 31.78125 66.40625 
Q 25.390625 66.40625 21.84375 63.234375 
Q 18.3125 60.0625 18.3125 54.390625 
z
" id="DejaVuSans-56"/>
       </defs>
       <use xlink:href="#DejaVuSans-49"/>
       <use x="63.623047" xlink:href="#DejaVuSans-56"/>
      </g>
     </g>
    </g>
   </g>
   <g id="matplotlib.axis_4">
    <g id="ytick_6">
     <g id="line2d_17">
      <g>
       <use style="stroke:#000000;stroke-width:0.8;" x="274.854076" xlink:href="#m6d273ca9f3" y="366.97483"/>
      </g>
     </g>
     <g id="text_16">
      <!-- 0.0 -->
      <g transform="translate(251.950951 370.774049)scale(0.1 -0.1)">
       <use xlink:href="#DejaVuSans-48"/>
       <use x="63.623047" xlink:href="#DejaVuSans-46"/>
       <use x="95.410156" xlink:href="#DejaVuSans-48"/>
      </g>
     </g>
    </g>
    <g id="ytick_7">
     <g id="line2d_18">
      <g>
       <use style="stroke:#000000;stroke-width:0.8;" x="274.854076" xlink:href="#m6d273ca9f3" y="301.553405"/>
      </g>
     </g>
     <g id="text_17">
      <!-- 0.1 -->
      <g transform="translate(251.950951 305.352624)scale(0.1 -0.1)">
       <use xlink:href="#DejaVuSans-48"/>
       <use x="63.623047" xlink:href="#DejaVuSans-46"/>
       <use x="95.410156" xlink:href="#DejaVuSans-49"/>
      </g>
     </g>
    </g>
    <g id="ytick_8">
     <g id="line2d_19">
      <g>
       <use style="stroke:#000000;stroke-width:0.8;" x="274.854076" xlink:href="#m6d273ca9f3" y="236.13198"/>
      </g>
     </g>
     <g id="text_18">
      <!-- 0.2 -->
      <g transform="translate(251.950951 239.931198)scale(0.1 -0.1)">
       <use xlink:href="#DejaVuSans-48"/>
       <use x="63.623047" xlink:href="#DejaVuSans-46"/>
       <use x="95.410156" xlink:href="#DejaVuSans-50"/>
      </g>
     </g>
    </g>
    <g id="ytick_9">
     <g id="line2d_20">
      <g>
       <use style="stroke:#000000;stroke-width:0.8;" x="274.854076" xlink:href="#m6d273ca9f3" y="170.710555"/>
      </g>
     </g>
     <g id="text_19">
      <!-- 0.3 -->
      <g transform="translate(251.950951 174.509773)scale(0.1 -0.1)">
       <defs>
        <path d="M 40.578125 39.3125 
Q 47.65625 37.796875 51.625 33 
Q 55.609375 28.21875 55.609375 21.1875 
Q 55.609375 10.40625 48.1875 4.484375 
Q 40.765625 -1.421875 27.09375 -1.421875 
Q 22.515625 -1.421875 17.65625 -0.515625 
Q 12.796875 0.390625 7.625 2.203125 
L 7.625 11.71875 
Q 11.71875 9.328125 16.59375 8.109375 
Q 21.484375 6.890625 26.8125 6.890625 
Q 36.078125 6.890625 40.9375 10.546875 
Q 45.796875 14.203125 45.796875 21.1875 
Q 45.796875 27.640625 41.28125 31.265625 
Q 36.765625 34.90625 28.71875 34.90625 
L 20.21875 34.90625 
L 20.21875 43.015625 
L 29.109375 43.015625 
Q 36.375 43.015625 40.234375 45.921875 
Q 44.09375 48.828125 44.09375 54.296875 
Q 44.09375 59.90625 40.109375 62.90625 
Q 36.140625 65.921875 28.71875 65.921875 
Q 24.65625 65.921875 20.015625 65.03125 
Q 15.375 64.15625 9.8125 62.3125 
L 9.8125 71.09375 
Q 15.4375 72.65625 20.34375 73.4375 
Q 25.25 74.21875 29.59375 74.21875 
Q 40.828125 74.21875 47.359375 69.109375 
Q 53.90625 64.015625 53.90625 55.328125 
Q 53.90625 49.265625 50.4375 45.09375 
Q 46.96875 40.921875 40.578125 39.3125 
z
" id="DejaVuSans-51"/>
       </defs>
       <use xlink:href="#DejaVuSans-48"/>
       <use x="63.623047" xlink:href="#DejaVuSans-46"/>
       <use x="95.410156" xlink:href="#DejaVuSans-51"/>
      </g>
     </g>
    </g>
    <g id="ytick_10">
     <g id="line2d_21">
      <g>
       <use style="stroke:#000000;stroke-width:0.8;" x="274.854076" xlink:href="#m6d273ca9f3" y="105.289129"/>
      </g>
     </g>
     <g id="text_20">
      <!-- 0.4 -->
      <g transform="translate(251.950951 109.088348)scale(0.1 -0.1)">
       <use xlink:href="#DejaVuSans-48"/>
       <use x="63.623047" xlink:href="#DejaVuSans-46"/>
       <use x="95.410156" xlink:href="#DejaVuSans-52"/>
      </g>
     </g>
    </g>
    <g id="ytick_11">
     <g id="line2d_22">
      <g>
       <use style="stroke:#000000;stroke-width:0.8;" x="274.854076" xlink:href="#m6d273ca9f3" y="39.867704"/>
      </g>
     </g>
     <g id="text_21">
      <!-- 0.5 -->
      <g transform="translate(251.950951 43.666923)scale(0.1 -0.1)">
       <use xlink:href="#DejaVuSans-48"/>
       <use x="63.623047" xlink:href="#DejaVuSans-46"/>
       <use x="95.410156" xlink:href="#DejaVuSans-53"/>
      </g>
     </g>
    </g>
    <g id="text_22">
     <!-- Density -->
     <g transform="translate(245.871264 211.526776)rotate(-90)scale(0.1 -0.1)">
      <use xlink:href="#DejaVuSans-68"/>
      <use x="77.001953" xlink:href="#DejaVuSans-101"/>
      <use x="138.525391" xlink:href="#DejaVuSans-110"/>
      <use x="201.904297" xlink:href="#DejaVuSans-115"/>
      <use x="254.003906" xlink:href="#DejaVuSans-105"/>
      <use x="281.787109" xlink:href="#DejaVuSans-116"/>
      <use x="320.996094" xlink:href="#DejaVuSans-121"/>
     </g>
    </g>
   </g>
   <g id="line2d_23">
    <path clip-path="url(#p31166bbf74)" d="M 283.124827 359.208416 
L 284.449472 357.304639 
L 285.774117 355.014212 
L 287.098761 352.279576 
L 288.423406 349.039622 
L 289.748051 345.230671 
L 291.072696 340.787759 
L 292.562921 334.951294 
L 294.053147 328.142301 
L 295.543372 320.279998 
L 297.199178 310.225823 
L 298.854984 298.717878 
L 300.676371 284.339877 
L 302.497757 268.175632 
L 304.484725 248.609946 
L 306.802853 223.538928 
L 309.783304 188.667907 
L 316.90327 104.09338 
L 319.055817 81.696794 
L 320.877204 65.039816 
L 322.367429 53.288531 
L 323.692074 44.417473 
L 324.851138 37.944072 
L 326.010203 32.710689 
L 327.003686 29.221279 
L 327.831589 27.011856 
L 328.659492 25.426569 
L 329.321815 24.596938 
L 329.984137 24.145438 
L 330.480879 24.047107 
L 330.977621 24.147764 
L 331.474362 24.440449 
L 332.136685 25.116296 
L 332.799007 26.100713 
L 333.62691 27.733262 
L 334.620394 30.224134 
L 335.779458 33.762101 
L 337.269683 39.106784 
L 339.256651 47.166825 
L 345.383133 72.688098 
L 347.3701 79.70514 
L 349.191487 85.308835 
L 351.012873 90.155796 
L 352.83426 94.381542 
L 355.317969 99.529874 
L 358.960742 107.063229 
L 360.782129 111.35958 
L 362.603515 116.252137 
L 364.424902 121.825395 
L 366.411869 128.666082 
L 368.895578 138.096597 
L 374.359738 159.23251 
L 376.015544 164.685765 
L 377.340189 168.402401 
L 378.499253 171.079251 
L 379.492736 172.890699 
L 380.320639 174.031985 
L 381.148542 174.82107 
L 381.810865 175.190758 
L 382.473187 175.323689 
L 383.13551 175.218094 
L 383.797832 174.874284 
L 384.460154 174.294685 
L 385.288057 173.245746 
L 386.115961 171.849206 
L 387.109444 169.741109 
L 388.268508 166.739165 
L 389.593153 162.695124 
L 391.41454 156.333168 
L 397.541022 134.105572 
L 398.865667 130.427757 
L 400.024731 127.871632 
L 401.018215 126.256894 
L 401.846118 125.362245 
L 402.50844 124.962712 
L 403.170762 124.858007 
L 403.667504 124.979422 
L 404.329827 125.414979 
L 404.992149 126.1696 
L 405.654471 127.248164 
L 406.482374 129.055898 
L 407.310277 131.374627 
L 408.303761 134.825042 
L 409.462825 139.74889 
L 410.78747 146.505757 
L 412.277695 155.436318 
L 413.933501 166.812348 
L 415.920469 182.108293 
L 418.569758 204.421699 
L 426.352046 271.274777 
L 428.670175 288.780454 
L 430.822723 303.327923 
L 432.644109 314.232216 
L 434.465496 323.816181 
L 436.121302 331.400634 
L 437.777108 337.956639 
L 439.267333 343.031973 
L 440.757559 347.385994 
L 442.247784 351.083228 
L 443.738009 354.191247 
L 445.228235 356.778054 
L 446.71846 358.909945 
L 448.208686 360.649863 
L 448.539847 360.989256 
L 448.539847 360.989256 
" style="fill:none;stroke:#ff7f0e;stroke-linecap:square;stroke-width:1.5;"/>
   </g>
   <g id="patch_9">
    <path d="M 274.854076 377.836364 
L 274.854076 7.2 
" style="fill:none;stroke:#000000;stroke-linecap:square;stroke-linejoin:miter;stroke-width:0.8;"/>
   </g>
   <g id="patch_10">
    <path d="M 456.810598 377.836364 
L 456.810598 7.2 
" style="fill:none;stroke:#000000;stroke-linecap:square;stroke-linejoin:miter;stroke-width:0.8;"/>
   </g>
   <g id="patch_11">
    <path d="M 274.854076 377.836364 
L 456.810598 377.836364 
" style="fill:none;stroke:#000000;stroke-linecap:square;stroke-linejoin:miter;stroke-width:0.8;"/>
   </g>
   <g id="patch_12">
    <path d="M 274.854076 7.2 
L 456.810598 7.2 
" style="fill:none;stroke:#000000;stroke-linecap:square;stroke-linejoin:miter;stroke-width:0.8;"/>
   </g>
   <g id="legend_2">
    <g id="patch_13">
     <path d="M 353.198098 30.15625 
L 449.810598 30.15625 
Q 451.810598 30.15625 451.810598 28.15625 
L 451.810598 14.2 
Q 451.810598 12.2 449.810598 12.2 
L 353.198098 12.2 
Q 351.198098 12.2 351.198098 14.2 
L 351.198098 28.15625 
Q 351.198098 30.15625 353.198098 30.15625 
z
" style="fill:#ffffff;opacity:0.8;stroke:#cccccc;stroke-linejoin:miter;"/>
    </g>
    <g id="line2d_24">
     <path d="M 355.198098 20.298437 
L 375.198098 20.298437 
" style="fill:none;stroke:#ff7f0e;stroke-linecap:square;stroke-width:1.5;"/>
    </g>
    <g id="line2d_25"/>
    <g id="text_23">
     <!-- HCSR04_002 -->
     <g transform="translate(383.198098 23.798437)scale(0.1 -0.1)">
      <use xlink:href="#DejaVuSans-72"/>
      <use x="75.195312" xlink:href="#DejaVuSans-67"/>
      <use x="145.019531" xlink:href="#DejaVuSans-83"/>
      <use x="208.496094" xlink:href="#DejaVuSans-82"/>
      <use x="277.978516" xlink:href="#DejaVuSans-48"/>
      <use x="341.601562" xlink:href="#DejaVuSans-52"/>
      <use x="405.224609" xlink:href="#DejaVuSans-95"/>
      <use x="455.224609" xlink:href="#DejaVuSans-48"/>
      <use x="518.847656" xlink:href="#DejaVuSans-48"/>
      <use x="582.470703" xlink:href="#DejaVuSans-50"/>
     </g>
    </g>
   </g>
  </g>
  <g id="axes_3">
   <g id="patch_14">
    <path d="M 493.201902 377.836364 
L 675.158424 377.836364 
L 675.158424 7.2 
L 493.201902 7.2 
z
" style="fill:#ffffff;"/>
   </g>
   <g id="matplotlib.axis_5">
    <g id="xtick_9">
     <g id="line2d_26">
      <g>
       <use style="stroke:#000000;stroke-width:0.8;" x="505.406646" xlink:href="#m8f8cb4360e" y="377.836364"/>
      </g>
     </g>
     <g id="text_24">
      <!-- −20 -->
      <g transform="translate(494.854302 392.434801)scale(0.1 -0.1)">
       <defs>
        <path d="M 10.59375 35.5 
L 73.1875 35.5 
L 73.1875 27.203125 
L 10.59375 27.203125 
z
" id="DejaVuSans-8722"/>
       </defs>
       <use xlink:href="#DejaVuSans-8722"/>
       <use x="83.789062" xlink:href="#DejaVuSans-50"/>
       <use x="147.412109" xlink:href="#DejaVuSans-48"/>
      </g>
     </g>
    </g>
    <g id="xtick_10">
     <g id="line2d_27">
      <g>
       <use style="stroke:#000000;stroke-width:0.8;" x="536.628809" xlink:href="#m8f8cb4360e" y="377.836364"/>
      </g>
     </g>
     <g id="text_25">
      <!-- 0 -->
      <g transform="translate(533.447559 392.434801)scale(0.1 -0.1)">
       <use xlink:href="#DejaVuSans-48"/>
      </g>
     </g>
    </g>
    <g id="xtick_11">
     <g id="line2d_28">
      <g>
       <use style="stroke:#000000;stroke-width:0.8;" x="567.850972" xlink:href="#m8f8cb4360e" y="377.836364"/>
      </g>
     </g>
     <g id="text_26">
      <!-- 20 -->
      <g transform="translate(561.488472 392.434801)scale(0.1 -0.1)">
       <use xlink:href="#DejaVuSans-50"/>
       <use x="63.623047" xlink:href="#DejaVuSans-48"/>
      </g>
     </g>
    </g>
    <g id="xtick_12">
     <g id="line2d_29">
      <g>
       <use style="stroke:#000000;stroke-width:0.8;" x="599.073135" xlink:href="#m8f8cb4360e" y="377.836364"/>
      </g>
     </g>
     <g id="text_27">
      <!-- 40 -->
      <g transform="translate(592.710635 392.434801)scale(0.1 -0.1)">
       <use xlink:href="#DejaVuSans-52"/>
       <use x="63.623047" xlink:href="#DejaVuSans-48"/>
      </g>
     </g>
    </g>
    <g id="xtick_13">
     <g id="line2d_30">
      <g>
       <use style="stroke:#000000;stroke-width:0.8;" x="630.295298" xlink:href="#m8f8cb4360e" y="377.836364"/>
      </g>
     </g>
     <g id="text_28">
      <!-- 60 -->
      <g transform="translate(623.932798 392.434801)scale(0.1 -0.1)">
       <use xlink:href="#DejaVuSans-54"/>
       <use x="63.623047" xlink:href="#DejaVuSans-48"/>
      </g>
     </g>
    </g>
    <g id="xtick_14">
     <g id="line2d_31">
      <g>
       <use style="stroke:#000000;stroke-width:0.8;" x="661.517461" xlink:href="#m8f8cb4360e" y="377.836364"/>
      </g>
     </g>
     <g id="text_29">
      <!-- 80 -->
      <g transform="translate(655.154961 392.434801)scale(0.1 -0.1)">
       <use xlink:href="#DejaVuSans-56"/>
       <use x="63.623047" xlink:href="#DejaVuSans-48"/>
      </g>
     </g>
    </g>
   </g>
   <g id="matplotlib.axis_6">
    <g id="ytick_12">
     <g id="line2d_32">
      <g>
       <use style="stroke:#000000;stroke-width:0.8;" x="493.201902" xlink:href="#m6d273ca9f3" y="361.249548"/>
      </g>
     </g>
     <g id="text_30">
      <!-- 0.000 -->
      <g transform="translate(457.573777 365.048767)scale(0.1 -0.1)">
       <use xlink:href="#DejaVuSans-48"/>
       <use x="63.623047" xlink:href="#DejaVuSans-46"/>
       <use x="95.410156" xlink:href="#DejaVuSans-48"/>
       <use x="159.033203" xlink:href="#DejaVuSans-48"/>
       <use x="222.65625" xlink:href="#DejaVuSans-48"/>
      </g>
     </g>
    </g>
    <g id="ytick_13">
     <g id="line2d_33">
      <g>
       <use style="stroke:#000000;stroke-width:0.8;" x="493.201902" xlink:href="#m6d273ca9f3" y="298.561024"/>
      </g>
     </g>
     <g id="text_31">
      <!-- 0.005 -->
      <g transform="translate(457.573777 302.360243)scale(0.1 -0.1)">
       <use xlink:href="#DejaVuSans-48"/>
       <use x="63.623047" xlink:href="#DejaVuSans-46"/>
       <use x="95.410156" xlink:href="#DejaVuSans-48"/>
       <use x="159.033203" xlink:href="#DejaVuSans-48"/>
       <use x="222.65625" xlink:href="#DejaVuSans-53"/>
      </g>
     </g>
    </g>
    <g id="ytick_14">
     <g id="line2d_34">
      <g>
       <use style="stroke:#000000;stroke-width:0.8;" x="493.201902" xlink:href="#m6d273ca9f3" y="235.8725"/>
      </g>
     </g>
     <g id="text_32">
      <!-- 0.010 -->
      <g transform="translate(457.573777 239.671718)scale(0.1 -0.1)">
       <use xlink:href="#DejaVuSans-48"/>
       <use x="63.623047" xlink:href="#DejaVuSans-46"/>
       <use x="95.410156" xlink:href="#DejaVuSans-48"/>
       <use x="159.033203" xlink:href="#DejaVuSans-49"/>
       <use x="222.65625" xlink:href="#DejaVuSans-48"/>
      </g>
     </g>
    </g>
    <g id="ytick_15">
     <g id="line2d_35">
      <g>
       <use style="stroke:#000000;stroke-width:0.8;" x="493.201902" xlink:href="#m6d273ca9f3" y="173.183975"/>
      </g>
     </g>
     <g id="text_33">
      <!-- 0.015 -->
      <g transform="translate(457.573777 176.983194)scale(0.1 -0.1)">
       <use xlink:href="#DejaVuSans-48"/>
       <use x="63.623047" xlink:href="#DejaVuSans-46"/>
       <use x="95.410156" xlink:href="#DejaVuSans-48"/>
       <use x="159.033203" xlink:href="#DejaVuSans-49"/>
       <use x="222.65625" xlink:href="#DejaVuSans-53"/>
      </g>
     </g>
    </g>
    <g id="ytick_16">
     <g id="line2d_36">
      <g>
       <use style="stroke:#000000;stroke-width:0.8;" x="493.201902" xlink:href="#m6d273ca9f3" y="110.495451"/>
      </g>
     </g>
     <g id="text_34">
      <!-- 0.020 -->
      <g transform="translate(457.573777 114.29467)scale(0.1 -0.1)">
       <use xlink:href="#DejaVuSans-48"/>
       <use x="63.623047" xlink:href="#DejaVuSans-46"/>
       <use x="95.410156" xlink:href="#DejaVuSans-48"/>
       <use x="159.033203" xlink:href="#DejaVuSans-50"/>
       <use x="222.65625" xlink:href="#DejaVuSans-48"/>
      </g>
     </g>
    </g>
    <g id="ytick_17">
     <g id="line2d_37">
      <g>
       <use style="stroke:#000000;stroke-width:0.8;" x="493.201902" xlink:href="#m6d273ca9f3" y="47.806926"/>
      </g>
     </g>
     <g id="text_35">
      <!-- 0.025 -->
      <g transform="translate(457.573777 51.606145)scale(0.1 -0.1)">
       <use xlink:href="#DejaVuSans-48"/>
       <use x="63.623047" xlink:href="#DejaVuSans-46"/>
       <use x="95.410156" xlink:href="#DejaVuSans-48"/>
       <use x="159.033203" xlink:href="#DejaVuSans-50"/>
       <use x="222.65625" xlink:href="#DejaVuSans-53"/>
      </g>
     </g>
    </g>
    <g id="text_36">
     <!-- Density -->
     <g transform="translate(451.49409 211.526776)rotate(-90)scale(0.1 -0.1)">
      <use xlink:href="#DejaVuSans-68"/>
      <use x="77.001953" xlink:href="#DejaVuSans-101"/>
      <use x="138.525391" xlink:href="#DejaVuSans-110"/>
      <use x="201.904297" xlink:href="#DejaVuSans-115"/>
      <use x="254.003906" xlink:href="#DejaVuSans-105"/>
      <use x="281.787109" xlink:href="#DejaVuSans-116"/>
      <use x="320.996094" xlink:href="#DejaVuSans-121"/>
     </g>
    </g>
   </g>
   <g id="line2d_38">
    <path clip-path="url(#p2f502e5893)" d="M 501.472653 360.989256 
L 505.612168 360.651036 
L 508.592619 360.201423 
L 511.076328 359.615573 
L 513.228876 358.885539 
L 515.050262 358.051526 
L 516.706068 357.072549 
L 518.361874 355.830895 
L 519.8521 354.438202 
L 521.342325 352.729803 
L 522.832551 350.643561 
L 524.157195 348.41414 
L 525.48184 345.772568 
L 526.806485 342.655511 
L 528.13113 338.993659 
L 529.455775 334.712437 
L 530.780419 329.733193 
L 532.270645 323.196342 
L 533.76087 315.558598 
L 535.251096 306.710596 
L 536.741321 296.555355 
L 538.397127 283.646196 
L 540.052933 268.966649 
L 541.87432 250.773007 
L 543.861287 228.602117 
L 546.179415 200.08724 
L 549.325447 158.342379 
L 553.796123 99.078227 
L 555.78309 75.537957 
L 557.438896 58.420429 
L 558.763541 46.810924 
L 559.922605 38.415899 
L 560.916089 32.660159 
L 561.743992 28.944279 
L 562.571895 26.252505 
L 563.234217 24.856278 
L 563.730959 24.257822 
L 564.227701 24.047107 
L 564.558862 24.122751 
L 565.055604 24.560513 
L 565.552346 25.386425 
L 566.214668 27.087067 
L 566.87699 29.463773 
L 567.704893 33.36389 
L 568.698377 39.35789 
L 569.857441 48.058462 
L 571.182086 60.056054 
L 572.672311 75.829947 
L 574.493698 97.726261 
L 576.977407 130.633888 
L 582.772728 208.637525 
L 584.925276 234.030185 
L 586.746662 252.795022 
L 588.236888 265.989929 
L 589.561533 275.953588 
L 590.720597 283.250951 
L 591.879661 289.193816 
L 592.873145 293.201645 
L 593.701048 295.777076 
L 594.528951 297.663082 
L 595.191273 298.681197 
L 595.853595 299.269404 
L 596.350337 299.432641 
L 596.847079 299.361424 
L 597.343821 299.059533 
L 598.006143 298.305383 
L 598.668466 297.159309 
L 599.496369 295.193757 
L 600.324272 292.660035 
L 601.317755 288.909566 
L 602.476819 283.623875 
L 603.801464 276.500657 
L 605.45727 266.208775 
L 607.444237 252.290466 
L 610.590269 228.37164 
L 613.901881 203.645688 
L 615.723267 191.545022 
L 617.213493 182.957621 
L 618.538138 176.560868 
L 619.697202 172.056765 
L 620.690685 169.082112 
L 621.518588 167.263238 
L 622.180911 166.25464 
L 622.843233 165.650794 
L 623.339975 165.46631 
L 623.836717 165.512953 
L 624.333459 165.790767 
L 624.8302 166.29895 
L 625.492523 167.331923 
L 626.154845 168.765257 
L 626.982748 171.106435 
L 627.976232 174.691562 
L 629.135296 179.880571 
L 630.459941 187.019397 
L 631.950166 196.388784 
L 633.771553 209.381245 
L 636.255262 228.917574 
L 642.878486 281.989167 
L 645.031034 297.138764 
L 647.018001 309.574611 
L 648.839387 319.546357 
L 650.495193 327.404619 
L 652.150999 334.142941 
L 653.641225 339.301888 
L 655.13145 343.66832 
L 656.621676 347.316122 
L 657.946321 350.019487 
L 659.270965 352.274637 
L 660.59561 354.137382 
L 661.920255 355.661022 
L 663.41048 357.031515 
L 664.900706 358.099847 
L 666.556512 359.001127 
L 666.887673 359.151043 
L 666.887673 359.151043 
" style="fill:none;stroke:#2ca02c;stroke-linecap:square;stroke-width:1.5;"/>
   </g>
   <g id="patch_15">
    <path d="M 493.201902 377.836364 
L 493.201902 7.2 
" style="fill:none;stroke:#000000;stroke-linecap:square;stroke-linejoin:miter;stroke-width:0.8;"/>
   </g>
   <g id="patch_16">
    <path d="M 675.158424 377.836364 
L 675.158424 7.2 
" style="fill:none;stroke:#000000;stroke-linecap:square;stroke-linejoin:miter;stroke-width:0.8;"/>
   </g>
   <g id="patch_17">
    <path d="M 493.201902 377.836364 
L 675.158424 377.836364 
" style="fill:none;stroke:#000000;stroke-linecap:square;stroke-linejoin:miter;stroke-width:0.8;"/>
   </g>
   <g id="patch_18">
    <path d="M 493.201902 7.2 
L 675.158424 7.2 
" style="fill:none;stroke:#000000;stroke-linecap:square;stroke-linejoin:miter;stroke-width:0.8;"/>
   </g>
   <g id="legend_3">
    <g id="patch_19">
     <path d="M 571.545924 30.15625 
L 668.158424 30.15625 
Q 670.158424 30.15625 670.158424 28.15625 
L 670.158424 14.2 
Q 670.158424 12.2 668.158424 12.2 
L 571.545924 12.2 
Q 569.545924 12.2 569.545924 14.2 
L 569.545924 28.15625 
Q 569.545924 30.15625 571.545924 30.15625 
z
" style="fill:#ffffff;opacity:0.8;stroke:#cccccc;stroke-linejoin:miter;"/>
    </g>
    <g id="line2d_39">
     <path d="M 573.545924 20.298437 
L 593.545924 20.298437 
" style="fill:none;stroke:#2ca02c;stroke-linecap:square;stroke-width:1.5;"/>
    </g>
    <g id="line2d_40"/>
    <g id="text_37">
     <!-- HCSR04_003 -->
     <g transform="translate(601.545924 23.798437)scale(0.1 -0.1)">
      <use xlink:href="#DejaVuSans-72"/>
      <use x="75.195312" xlink:href="#DejaVuSans-67"/>
      <use x="145.019531" xlink:href="#DejaVuSans-83"/>
      <use x="208.496094" xlink:href="#DejaVuSans-82"/>
      <use x="277.978516" xlink:href="#DejaVuSans-48"/>
      <use x="341.601562" xlink:href="#DejaVuSans-52"/>
      <use x="405.224609" xlink:href="#DejaVuSans-95"/>
      <use x="455.224609" xlink:href="#DejaVuSans-48"/>
      <use x="518.847656" xlink:href="#DejaVuSans-48"/>
      <use x="582.470703" xlink:href="#DejaVuSans-51"/>
     </g>
    </g>
   </g>
  </g>
  <g id="axes_4">
   <g id="patch_20">
    <path d="M 711.549728 377.836364 
L 893.50625 377.836364 
L 893.50625 7.2 
L 711.549728 7.2 
z
" style="fill:#ffffff;"/>
   </g>
   <g id="matplotlib.axis_7">
    <g id="xtick_15">
     <g id="line2d_41">
      <g>
       <use style="stroke:#000000;stroke-width:0.8;" x="724.492242" xlink:href="#m8f8cb4360e" y="377.836364"/>
      </g>
     </g>
     <g id="text_38">
      <!-- 17 -->
      <g transform="translate(718.129742 392.434801)scale(0.1 -0.1)">
       <use xlink:href="#DejaVuSans-49"/>
       <use x="63.623047" xlink:href="#DejaVuSans-55"/>
      </g>
     </g>
    </g>
    <g id="xtick_16">
     <g id="line2d_42">
      <g>
       <use style="stroke:#000000;stroke-width:0.8;" x="759.097895" xlink:href="#m8f8cb4360e" y="377.836364"/>
      </g>
     </g>
     <g id="text_39">
      <!-- 18 -->
      <g transform="translate(752.735395 392.434801)scale(0.1 -0.1)">
       <use xlink:href="#DejaVuSans-49"/>
       <use x="63.623047" xlink:href="#DejaVuSans-56"/>
      </g>
     </g>
    </g>
    <g id="xtick_17">
     <g id="line2d_43">
      <g>
       <use style="stroke:#000000;stroke-width:0.8;" x="793.703548" xlink:href="#m8f8cb4360e" y="377.836364"/>
      </g>
     </g>
     <g id="text_40">
      <!-- 19 -->
      <g transform="translate(787.341048 392.434801)scale(0.1 -0.1)">
       <defs>
        <path d="M 10.984375 1.515625 
L 10.984375 10.5 
Q 14.703125 8.734375 18.5 7.8125 
Q 22.3125 6.890625 25.984375 6.890625 
Q 35.75 6.890625 40.890625 13.453125 
Q 46.046875 20.015625 46.78125 33.40625 
Q 43.953125 29.203125 39.59375 26.953125 
Q 35.25 24.703125 29.984375 24.703125 
Q 19.046875 24.703125 12.671875 31.3125 
Q 6.296875 37.9375 6.296875 49.421875 
Q 6.296875 60.640625 12.9375 67.421875 
Q 19.578125 74.21875 30.609375 74.21875 
Q 43.265625 74.21875 49.921875 64.515625 
Q 56.59375 54.828125 56.59375 36.375 
Q 56.59375 19.140625 48.40625 8.859375 
Q 40.234375 -1.421875 26.421875 -1.421875 
Q 22.703125 -1.421875 18.890625 -0.6875 
Q 15.09375 0.046875 10.984375 1.515625 
z
M 30.609375 32.421875 
Q 37.25 32.421875 41.125 36.953125 
Q 45.015625 41.5 45.015625 49.421875 
Q 45.015625 57.28125 41.125 61.84375 
Q 37.25 66.40625 30.609375 66.40625 
Q 23.96875 66.40625 20.09375 61.84375 
Q 16.21875 57.28125 16.21875 49.421875 
Q 16.21875 41.5 20.09375 36.953125 
Q 23.96875 32.421875 30.609375 32.421875 
z
" id="DejaVuSans-57"/>
       </defs>
       <use xlink:href="#DejaVuSans-49"/>
       <use x="63.623047" xlink:href="#DejaVuSans-57"/>
      </g>
     </g>
    </g>
    <g id="xtick_18">
     <g id="line2d_44">
      <g>
       <use style="stroke:#000000;stroke-width:0.8;" x="828.3092" xlink:href="#m8f8cb4360e" y="377.836364"/>
      </g>
     </g>
     <g id="text_41">
      <!-- 20 -->
      <g transform="translate(821.9467 392.434801)scale(0.1 -0.1)">
       <use xlink:href="#DejaVuSans-50"/>
       <use x="63.623047" xlink:href="#DejaVuSans-48"/>
      </g>
     </g>
    </g>
    <g id="xtick_19">
     <g id="line2d_45">
      <g>
       <use style="stroke:#000000;stroke-width:0.8;" x="862.914853" xlink:href="#m8f8cb4360e" y="377.836364"/>
      </g>
     </g>
     <g id="text_42">
      <!-- 21 -->
      <g transform="translate(856.552353 392.434801)scale(0.1 -0.1)">
       <use xlink:href="#DejaVuSans-50"/>
       <use x="63.623047" xlink:href="#DejaVuSans-49"/>
      </g>
     </g>
    </g>
   </g>
   <g id="matplotlib.axis_8">
    <g id="ytick_18">
     <g id="line2d_46">
      <g>
       <use style="stroke:#000000;stroke-width:0.8;" x="711.549728" xlink:href="#m6d273ca9f3" y="360.989508"/>
      </g>
     </g>
     <g id="text_43">
      <!-- 0.0 -->
      <g transform="translate(688.646603 364.788726)scale(0.1 -0.1)">
       <use xlink:href="#DejaVuSans-48"/>
       <use x="63.623047" xlink:href="#DejaVuSans-46"/>
       <use x="95.410156" xlink:href="#DejaVuSans-48"/>
      </g>
     </g>
    </g>
    <g id="ytick_19">
     <g id="line2d_47">
      <g>
       <use style="stroke:#000000;stroke-width:0.8;" x="711.549728" xlink:href="#m6d273ca9f3" y="287.181635"/>
      </g>
     </g>
     <g id="text_44">
      <!-- 0.2 -->
      <g transform="translate(688.646603 290.980854)scale(0.1 -0.1)">
       <use xlink:href="#DejaVuSans-48"/>
       <use x="63.623047" xlink:href="#DejaVuSans-46"/>
       <use x="95.410156" xlink:href="#DejaVuSans-50"/>
      </g>
     </g>
    </g>
    <g id="ytick_20">
     <g id="line2d_48">
      <g>
       <use style="stroke:#000000;stroke-width:0.8;" x="711.549728" xlink:href="#m6d273ca9f3" y="213.373762"/>
      </g>
     </g>
     <g id="text_45">
      <!-- 0.4 -->
      <g transform="translate(688.646603 217.172981)scale(0.1 -0.1)">
       <use xlink:href="#DejaVuSans-48"/>
       <use x="63.623047" xlink:href="#DejaVuSans-46"/>
       <use x="95.410156" xlink:href="#DejaVuSans-52"/>
      </g>
     </g>
    </g>
    <g id="ytick_21">
     <g id="line2d_49">
      <g>
       <use style="stroke:#000000;stroke-width:0.8;" x="711.549728" xlink:href="#m6d273ca9f3" y="139.56589"/>
      </g>
     </g>
     <g id="text_46">
      <!-- 0.6 -->
      <g transform="translate(688.646603 143.365109)scale(0.1 -0.1)">
       <use xlink:href="#DejaVuSans-48"/>
       <use x="63.623047" xlink:href="#DejaVuSans-46"/>
       <use x="95.410156" xlink:href="#DejaVuSans-54"/>
      </g>
     </g>
    </g>
    <g id="ytick_22">
     <g id="line2d_50">
      <g>
       <use style="stroke:#000000;stroke-width:0.8;" x="711.549728" xlink:href="#m6d273ca9f3" y="65.758017"/>
      </g>
     </g>
     <g id="text_47">
      <!-- 0.8 -->
      <g transform="translate(688.646603 69.557236)scale(0.1 -0.1)">
       <use xlink:href="#DejaVuSans-48"/>
       <use x="63.623047" xlink:href="#DejaVuSans-46"/>
       <use x="95.410156" xlink:href="#DejaVuSans-56"/>
      </g>
     </g>
    </g>
    <g id="text_48">
     <!-- Density -->
     <g transform="translate(682.566916 211.526776)rotate(-90)scale(0.1 -0.1)">
      <use xlink:href="#DejaVuSans-68"/>
      <use x="77.001953" xlink:href="#DejaVuSans-101"/>
      <use x="138.525391" xlink:href="#DejaVuSans-110"/>
      <use x="201.904297" xlink:href="#DejaVuSans-115"/>
      <use x="254.003906" xlink:href="#DejaVuSans-105"/>
      <use x="281.787109" xlink:href="#DejaVuSans-116"/>
      <use x="320.996094" xlink:href="#DejaVuSans-121"/>
     </g>
    </g>
   </g>
   <g id="line2d_51">
    <path clip-path="url(#p91d82b8b69)" d="M 719.820479 360.988507 
L 729.589735 360.874622 
L 732.404605 360.630149 
L 734.391572 360.233246 
L 735.881797 359.711085 
L 737.206442 358.998747 
L 738.365506 358.109759 
L 739.35899 357.091244 
L 740.352474 355.778371 
L 741.345957 354.110236 
L 742.339441 352.021296 
L 743.332925 349.443603 
L 744.491989 345.72901 
L 745.651053 341.159431 
L 746.810117 335.655148 
L 748.134762 328.157874 
L 749.459407 319.369025 
L 751.115213 306.703485 
L 753.10218 289.595164 
L 757.904017 247.394904 
L 759.228662 237.860779 
L 760.387726 230.965559 
L 761.38121 226.304104 
L 762.209113 223.366622 
L 762.871435 221.652641 
L 763.533758 220.502207 
L 764.0305 220.001506 
L 764.527241 219.800693 
L 765.023983 219.886688 
L 765.520725 220.243232 
L 766.183047 221.105828 
L 766.84537 222.361829 
L 767.673273 224.392174 
L 768.832337 227.85467 
L 772.30953 238.750966 
L 773.137433 240.593867 
L 773.799755 241.652845 
L 774.296497 242.160863 
L 774.793239 242.394136 
L 775.28998 242.327887 
L 775.786722 241.939043 
L 776.283464 241.206348 
L 776.780206 240.110495 
L 777.442528 238.054966 
L 778.104851 235.288748 
L 778.932754 230.791062 
L 779.760657 225.106581 
L 780.75414 216.702981 
L 781.913204 204.755239 
L 783.237849 188.45154 
L 784.728075 167.20529 
L 786.880622 132.815216 
L 790.357815 76.749641 
L 791.84804 56.348866 
L 793.007105 43.311906 
L 794.000588 34.56418 
L 794.828491 29.193073 
L 795.490814 26.23611 
L 795.987555 24.82725 
L 796.484297 24.123798 
L 796.815458 24.049467 
L 797.14662 24.291245 
L 797.477781 24.84832 
L 797.974523 26.270874 
L 798.471264 28.388311 
L 799.133587 32.266067 
L 799.96149 38.739035 
L 800.954973 48.729466 
L 802.114038 63.123257 
L 803.438682 82.601537 
L 805.094488 110.349613 
L 807.909359 162.023106 
L 811.220971 221.913785 
L 813.207938 253.932925 
L 814.863744 277.278181 
L 816.353969 295.378001 
L 817.678614 309.084659 
L 819.003259 320.593639 
L 820.162323 328.951622 
L 821.321387 335.827544 
L 822.480451 341.353925 
L 823.473935 345.125421 
L 824.467419 348.103164 
L 825.460902 350.377719 
L 826.288805 351.798555 
L 827.116708 352.83826 
L 827.944611 353.540796 
L 828.772514 353.946935 
L 829.600417 354.094362 
L 830.42832 354.017945 
L 831.421804 353.676273 
L 832.580868 352.998716 
L 833.905513 351.95148 
L 835.89248 350.066183 
L 839.038512 347.083837 
L 840.528737 345.98146 
L 841.687801 345.360995 
L 842.846865 344.987708 
L 843.840349 344.881536 
L 844.833833 344.97856 
L 845.827316 345.27586 
L 846.98638 345.861136 
L 848.311025 346.807959 
L 849.801251 348.155299 
L 851.953798 350.428186 
L 856.093313 354.8556 
L 858.080281 356.621779 
L 859.901667 357.930577 
L 861.557473 358.857618 
L 863.37886 359.613947 
L 865.365827 360.17737 
L 867.683955 360.577799 
L 870.498826 360.825177 
L 874.803921 360.95643 
L 885.235499 360.989256 
L 885.235499 360.989256 
" style="fill:none;stroke:#d62728;stroke-linecap:square;stroke-width:1.5;"/>
   </g>
   <g id="patch_21">
    <path d="M 711.549728 377.836364 
L 711.549728 7.2 
" style="fill:none;stroke:#000000;stroke-linecap:square;stroke-linejoin:miter;stroke-width:0.8;"/>
   </g>
   <g id="patch_22">
    <path d="M 893.50625 377.836364 
L 893.50625 7.2 
" style="fill:none;stroke:#000000;stroke-linecap:square;stroke-linejoin:miter;stroke-width:0.8;"/>
   </g>
   <g id="patch_23">
    <path d="M 711.549728 377.836364 
L 893.50625 377.836364 
" style="fill:none;stroke:#000000;stroke-linecap:square;stroke-linejoin:miter;stroke-width:0.8;"/>
   </g>
   <g id="patch_24">
    <path d="M 711.549728 7.2 
L 893.50625 7.2 
" style="fill:none;stroke:#000000;stroke-linecap:square;stroke-linejoin:miter;stroke-width:0.8;"/>
   </g>
   <g id="legend_4">
    <g id="patch_25">
     <path d="M 754.221739 372.836364 
L 850.834239 372.836364 
Q 852.834239 372.836364 852.834239 370.836364 
L 852.834239 356.880114 
Q 852.834239 354.880114 850.834239 354.880114 
L 754.221739 354.880114 
Q 752.221739 354.880114 752.221739 356.880114 
L 752.221739 370.836364 
Q 752.221739 372.836364 754.221739 372.836364 
z
" style="fill:#ffffff;opacity:0.8;stroke:#cccccc;stroke-linejoin:miter;"/>
    </g>
    <g id="line2d_52">
     <path d="M 756.221739 362.978551 
L 776.221739 362.978551 
" style="fill:none;stroke:#d62728;stroke-linecap:square;stroke-width:1.5;"/>
    </g>
    <g id="line2d_53"/>
    <g id="text_49">
     <!-- HCSR04_004 -->
     <g transform="translate(784.221739 366.478551)scale(0.1 -0.1)">
      <use xlink:href="#DejaVuSans-72"/>
      <use x="75.195312" xlink:href="#DejaVuSans-67"/>
      <use x="145.019531" xlink:href="#DejaVuSans-83"/>
      <use x="208.496094" xlink:href="#DejaVuSans-82"/>
      <use x="277.978516" xlink:href="#DejaVuSans-48"/>
      <use x="341.601562" xlink:href="#DejaVuSans-52"/>
      <use x="405.224609" xlink:href="#DejaVuSans-95"/>
      <use x="455.224609" xlink:href="#DejaVuSans-48"/>
      <use x="518.847656" xlink:href="#DejaVuSans-48"/>
      <use x="582.470703" xlink:href="#DejaVuSans-52"/>
     </g>
    </g>
   </g>
  </g>
  <g id="axes_5">
   <g id="patch_26">
    <path d="M 56.50625 822.6 
L 238.462772 822.6 
L 238.462772 451.963636 
L 56.50625 451.963636 
z
" style="fill:#ffffff;"/>
   </g>
   <g id="matplotlib.axis_9">
    <g id="xtick_20">
     <g id="line2d_54">
      <g>
       <use style="stroke:#000000;stroke-width:0.8;" x="69.739452" xlink:href="#m8f8cb4360e" y="822.6"/>
      </g>
     </g>
     <g id="text_50">
      <!-- 49 -->
      <g transform="translate(63.376952 837.198437)scale(0.1 -0.1)">
       <use xlink:href="#DejaVuSans-52"/>
       <use x="63.623047" xlink:href="#DejaVuSans-57"/>
      </g>
     </g>
    </g>
    <g id="xtick_21">
     <g id="line2d_55">
      <g>
       <use style="stroke:#000000;stroke-width:0.8;" x="106.498345" xlink:href="#m8f8cb4360e" y="822.6"/>
      </g>
     </g>
     <g id="text_51">
      <!-- 50 -->
      <g transform="translate(100.135845 837.198437)scale(0.1 -0.1)">
       <use xlink:href="#DejaVuSans-53"/>
       <use x="63.623047" xlink:href="#DejaVuSans-48"/>
      </g>
     </g>
    </g>
    <g id="xtick_22">
     <g id="line2d_56">
      <g>
       <use style="stroke:#000000;stroke-width:0.8;" x="143.257238" xlink:href="#m8f8cb4360e" y="822.6"/>
      </g>
     </g>
     <g id="text_52">
      <!-- 51 -->
      <g transform="translate(136.894738 837.198437)scale(0.1 -0.1)">
       <use xlink:href="#DejaVuSans-53"/>
       <use x="63.623047" xlink:href="#DejaVuSans-49"/>
      </g>
     </g>
    </g>
    <g id="xtick_23">
     <g id="line2d_57">
      <g>
       <use style="stroke:#000000;stroke-width:0.8;" x="180.016131" xlink:href="#m8f8cb4360e" y="822.6"/>
      </g>
     </g>
     <g id="text_53">
      <!-- 52 -->
      <g transform="translate(173.653631 837.198437)scale(0.1 -0.1)">
       <use xlink:href="#DejaVuSans-53"/>
       <use x="63.623047" xlink:href="#DejaVuSans-50"/>
      </g>
     </g>
    </g>
    <g id="xtick_24">
     <g id="line2d_58">
      <g>
       <use style="stroke:#000000;stroke-width:0.8;" x="216.775025" xlink:href="#m8f8cb4360e" y="822.6"/>
      </g>
     </g>
     <g id="text_54">
      <!-- 53 -->
      <g transform="translate(210.412525 837.198437)scale(0.1 -0.1)">
       <use xlink:href="#DejaVuSans-53"/>
       <use x="63.623047" xlink:href="#DejaVuSans-51"/>
      </g>
     </g>
    </g>
   </g>
   <g id="matplotlib.axis_10">
    <g id="ytick_23">
     <g id="line2d_59">
      <g>
       <use style="stroke:#000000;stroke-width:0.8;" x="56.50625" xlink:href="#m6d273ca9f3" y="805.752893"/>
      </g>
     </g>
     <g id="text_55">
      <!-- 0.0 -->
      <g transform="translate(33.603125 809.552111)scale(0.1 -0.1)">
       <use xlink:href="#DejaVuSans-48"/>
       <use x="63.623047" xlink:href="#DejaVuSans-46"/>
       <use x="95.410156" xlink:href="#DejaVuSans-48"/>
      </g>
     </g>
    </g>
    <g id="ytick_24">
     <g id="line2d_60">
      <g>
       <use style="stroke:#000000;stroke-width:0.8;" x="56.50625" xlink:href="#m6d273ca9f3" y="764.141972"/>
      </g>
     </g>
     <g id="text_56">
      <!-- 0.2 -->
      <g transform="translate(33.603125 767.941191)scale(0.1 -0.1)">
       <use xlink:href="#DejaVuSans-48"/>
       <use x="63.623047" xlink:href="#DejaVuSans-46"/>
       <use x="95.410156" xlink:href="#DejaVuSans-50"/>
      </g>
     </g>
    </g>
    <g id="ytick_25">
     <g id="line2d_61">
      <g>
       <use style="stroke:#000000;stroke-width:0.8;" x="56.50625" xlink:href="#m6d273ca9f3" y="722.531052"/>
      </g>
     </g>
     <g id="text_57">
      <!-- 0.4 -->
      <g transform="translate(33.603125 726.33027)scale(0.1 -0.1)">
       <use xlink:href="#DejaVuSans-48"/>
       <use x="63.623047" xlink:href="#DejaVuSans-46"/>
       <use x="95.410156" xlink:href="#DejaVuSans-52"/>
      </g>
     </g>
    </g>
    <g id="ytick_26">
     <g id="line2d_62">
      <g>
       <use style="stroke:#000000;stroke-width:0.8;" x="56.50625" xlink:href="#m6d273ca9f3" y="680.920131"/>
      </g>
     </g>
     <g id="text_58">
      <!-- 0.6 -->
      <g transform="translate(33.603125 684.71935)scale(0.1 -0.1)">
       <use xlink:href="#DejaVuSans-48"/>
       <use x="63.623047" xlink:href="#DejaVuSans-46"/>
       <use x="95.410156" xlink:href="#DejaVuSans-54"/>
      </g>
     </g>
    </g>
    <g id="ytick_27">
     <g id="line2d_63">
      <g>
       <use style="stroke:#000000;stroke-width:0.8;" x="56.50625" xlink:href="#m6d273ca9f3" y="639.309211"/>
      </g>
     </g>
     <g id="text_59">
      <!-- 0.8 -->
      <g transform="translate(33.603125 643.10843)scale(0.1 -0.1)">
       <use xlink:href="#DejaVuSans-48"/>
       <use x="63.623047" xlink:href="#DejaVuSans-46"/>
       <use x="95.410156" xlink:href="#DejaVuSans-56"/>
      </g>
     </g>
    </g>
    <g id="ytick_28">
     <g id="line2d_64">
      <g>
       <use style="stroke:#000000;stroke-width:0.8;" x="56.50625" xlink:href="#m6d273ca9f3" y="597.69829"/>
      </g>
     </g>
     <g id="text_60">
      <!-- 1.0 -->
      <g transform="translate(33.603125 601.497509)scale(0.1 -0.1)">
       <use xlink:href="#DejaVuSans-49"/>
       <use x="63.623047" xlink:href="#DejaVuSans-46"/>
       <use x="95.410156" xlink:href="#DejaVuSans-48"/>
      </g>
     </g>
    </g>
    <g id="ytick_29">
     <g id="line2d_65">
      <g>
       <use style="stroke:#000000;stroke-width:0.8;" x="56.50625" xlink:href="#m6d273ca9f3" y="556.08737"/>
      </g>
     </g>
     <g id="text_61">
      <!-- 1.2 -->
      <g transform="translate(33.603125 559.886589)scale(0.1 -0.1)">
       <use xlink:href="#DejaVuSans-49"/>
       <use x="63.623047" xlink:href="#DejaVuSans-46"/>
       <use x="95.410156" xlink:href="#DejaVuSans-50"/>
      </g>
     </g>
    </g>
    <g id="ytick_30">
     <g id="line2d_66">
      <g>
       <use style="stroke:#000000;stroke-width:0.8;" x="56.50625" xlink:href="#m6d273ca9f3" y="514.47645"/>
      </g>
     </g>
     <g id="text_62">
      <!-- 1.4 -->
      <g transform="translate(33.603125 518.275668)scale(0.1 -0.1)">
       <use xlink:href="#DejaVuSans-49"/>
       <use x="63.623047" xlink:href="#DejaVuSans-46"/>
       <use x="95.410156" xlink:href="#DejaVuSans-52"/>
      </g>
     </g>
    </g>
    <g id="ytick_31">
     <g id="line2d_67">
      <g>
       <use style="stroke:#000000;stroke-width:0.8;" x="56.50625" xlink:href="#m6d273ca9f3" y="472.865529"/>
      </g>
     </g>
     <g id="text_63">
      <!-- 1.6 -->
      <g transform="translate(33.603125 476.664748)scale(0.1 -0.1)">
       <use xlink:href="#DejaVuSans-49"/>
       <use x="63.623047" xlink:href="#DejaVuSans-46"/>
       <use x="95.410156" xlink:href="#DejaVuSans-54"/>
      </g>
     </g>
    </g>
    <g id="text_64">
     <!-- Density -->
     <g transform="translate(27.523438 656.290412)rotate(-90)scale(0.1 -0.1)">
      <use xlink:href="#DejaVuSans-68"/>
      <use x="77.001953" xlink:href="#DejaVuSans-101"/>
      <use x="138.525391" xlink:href="#DejaVuSans-110"/>
      <use x="201.904297" xlink:href="#DejaVuSans-115"/>
      <use x="254.003906" xlink:href="#DejaVuSans-105"/>
      <use x="281.787109" xlink:href="#DejaVuSans-116"/>
      <use x="320.996094" xlink:href="#DejaVuSans-121"/>
     </g>
    </g>
   </g>
   <g id="line2d_68">
    <path clip-path="url(#p3c5f5c0e56)" d="M 64.777001 805.752893 
L 87.461543 805.643881 
L 89.945252 805.387486 
L 91.601058 805.008884 
L 93.091284 804.430736 
L 94.415928 803.659155 
L 95.574993 802.743274 
L 96.899637 801.394536 
L 98.224282 799.727498 
L 99.880088 797.268246 
L 102.529378 792.854405 
L 105.344248 787.823319 
L 106.503312 785.345759 
L 107.496796 782.715918 
L 108.324699 779.952325 
L 109.152602 776.456551 
L 109.980505 772.005804 
L 110.808408 766.366489 
L 111.636311 759.309109 
L 112.629794 748.678222 
L 113.623278 735.429006 
L 114.782342 716.472658 
L 115.941407 693.816329 
L 117.431632 659.98113 
L 119.74976 601.172758 
L 122.067889 543.984359 
L 123.392534 516.213072 
L 124.551598 496.479943 
L 125.545081 483.553368 
L 126.372984 475.813065 
L 127.035307 471.666306 
L 127.532049 469.758433 
L 127.86321 469.057582 
L 128.194371 468.810744 
L 128.525532 469.01426 
L 128.856693 469.663483 
L 129.353435 471.460608 
L 129.850177 474.225485 
L 130.512499 479.371075 
L 131.340402 488.042025 
L 132.333886 501.498406 
L 133.49295 520.935299 
L 134.817595 547.189321 
L 136.804562 591.847188 
L 140.447335 674.83112 
L 142.103141 706.997088 
L 143.427786 728.752893 
L 144.752431 746.789036 
L 145.911495 759.666131 
L 147.070559 770.114676 
L 148.229624 778.472987 
L 149.388688 785.08945 
L 150.547752 790.285172 
L 151.541236 793.817622 
L 152.534719 796.652773 
L 153.528203 798.909689 
L 154.521686 800.687145 
L 155.51517 802.068152 
L 156.508654 803.123696 
L 157.667718 804.025438 
L 158.826782 804.651611 
L 160.151427 805.119641 
L 161.807233 805.454267 
L 163.959781 805.64967 
L 167.436973 805.715832 
L 170.914166 805.592148 
L 173.066714 805.313551 
L 174.72252 804.876439 
L 176.047164 804.311196 
L 177.371809 803.494729 
L 178.696454 802.385011 
L 180.021099 800.970178 
L 181.676905 798.832348 
L 185.650839 793.462406 
L 186.809903 792.3797 
L 187.637806 791.871023 
L 188.465709 791.616241 
L 189.293612 791.629767 
L 190.121515 791.91083 
L 190.949418 792.443553 
L 191.942902 793.372669 
L 193.267547 794.983271 
L 196.082417 798.946659 
L 197.903804 801.257826 
L 199.228448 802.616522 
L 200.553093 803.669198 
L 201.877738 804.434769 
L 203.202383 804.958941 
L 204.858189 805.359651 
L 206.845156 805.599925 
L 209.991188 805.725515 
L 218.93254 805.752847 
L 230.192021 805.752893 
L 230.192021 805.752893 
" style="fill:none;stroke:#9467bd;stroke-linecap:square;stroke-width:1.5;"/>
   </g>
   <g id="patch_27">
    <path d="M 56.50625 822.6 
L 56.50625 451.963636 
" style="fill:none;stroke:#000000;stroke-linecap:square;stroke-linejoin:miter;stroke-width:0.8;"/>
   </g>
   <g id="patch_28">
    <path d="M 238.462772 822.6 
L 238.462772 451.963636 
" style="fill:none;stroke:#000000;stroke-linecap:square;stroke-linejoin:miter;stroke-width:0.8;"/>
   </g>
   <g id="patch_29">
    <path d="M 56.50625 822.6 
L 238.462772 822.6 
" style="fill:none;stroke:#000000;stroke-linecap:square;stroke-linejoin:miter;stroke-width:0.8;"/>
   </g>
   <g id="patch_30">
    <path d="M 56.50625 451.963636 
L 238.462772 451.963636 
" style="fill:none;stroke:#000000;stroke-linecap:square;stroke-linejoin:miter;stroke-width:0.8;"/>
   </g>
   <g id="legend_5">
    <g id="patch_31">
     <path d="M 134.850272 474.919886 
L 231.462772 474.919886 
Q 233.462772 474.919886 233.462772 472.919886 
L 233.462772 458.963636 
Q 233.462772 456.963636 231.462772 456.963636 
L 134.850272 456.963636 
Q 132.850272 456.963636 132.850272 458.963636 
L 132.850272 472.919886 
Q 132.850272 474.919886 134.850272 474.919886 
z
" style="fill:#ffffff;opacity:0.8;stroke:#cccccc;stroke-linejoin:miter;"/>
    </g>
    <g id="line2d_69">
     <path d="M 136.850272 465.062074 
L 156.850272 465.062074 
" style="fill:none;stroke:#9467bd;stroke-linecap:square;stroke-width:1.5;"/>
    </g>
    <g id="line2d_70"/>
    <g id="text_65">
     <!-- HCSR04_005 -->
     <g transform="translate(164.850272 468.562074)scale(0.1 -0.1)">
      <use xlink:href="#DejaVuSans-72"/>
      <use x="75.195312" xlink:href="#DejaVuSans-67"/>
      <use x="145.019531" xlink:href="#DejaVuSans-83"/>
      <use x="208.496094" xlink:href="#DejaVuSans-82"/>
      <use x="277.978516" xlink:href="#DejaVuSans-48"/>
      <use x="341.601562" xlink:href="#DejaVuSans-52"/>
      <use x="405.224609" xlink:href="#DejaVuSans-95"/>
      <use x="455.224609" xlink:href="#DejaVuSans-48"/>
      <use x="518.847656" xlink:href="#DejaVuSans-48"/>
      <use x="582.470703" xlink:href="#DejaVuSans-53"/>
     </g>
    </g>
   </g>
  </g>
  <g id="axes_6">
   <g id="patch_32">
    <path d="M 274.854076 822.6 
L 456.810598 822.6 
L 456.810598 451.963636 
L 274.854076 451.963636 
z
" style="fill:#ffffff;"/>
   </g>
   <g id="matplotlib.axis_11">
    <g id="xtick_25">
     <g id="line2d_71">
      <g>
       <use style="stroke:#000000;stroke-width:0.8;" x="283.081611" xlink:href="#m8f8cb4360e" y="822.6"/>
      </g>
     </g>
     <g id="text_66">
      <!-- −1000 -->
      <g transform="translate(266.166767 837.198437)scale(0.1 -0.1)">
       <use xlink:href="#DejaVuSans-8722"/>
       <use x="83.789062" xlink:href="#DejaVuSans-49"/>
       <use x="147.412109" xlink:href="#DejaVuSans-48"/>
       <use x="211.035156" xlink:href="#DejaVuSans-48"/>
       <use x="274.658203" xlink:href="#DejaVuSans-48"/>
      </g>
     </g>
    </g>
    <g id="xtick_26">
     <g id="line2d_72">
      <g>
       <use style="stroke:#000000;stroke-width:0.8;" x="322.912051" xlink:href="#m8f8cb4360e" y="822.6"/>
      </g>
     </g>
     <g id="text_67">
      <!-- 0 -->
      <g transform="translate(319.730801 837.198437)scale(0.1 -0.1)">
       <use xlink:href="#DejaVuSans-48"/>
      </g>
     </g>
    </g>
    <g id="xtick_27">
     <g id="line2d_73">
      <g>
       <use style="stroke:#000000;stroke-width:0.8;" x="362.742491" xlink:href="#m8f8cb4360e" y="822.6"/>
      </g>
     </g>
     <g id="text_68">
      <!-- 1000 -->
      <g transform="translate(350.017491 837.198437)scale(0.1 -0.1)">
       <use xlink:href="#DejaVuSans-49"/>
       <use x="63.623047" xlink:href="#DejaVuSans-48"/>
       <use x="127.246094" xlink:href="#DejaVuSans-48"/>
       <use x="190.869141" xlink:href="#DejaVuSans-48"/>
      </g>
     </g>
    </g>
    <g id="xtick_28">
     <g id="line2d_74">
      <g>
       <use style="stroke:#000000;stroke-width:0.8;" x="402.57293" xlink:href="#m8f8cb4360e" y="822.6"/>
      </g>
     </g>
     <g id="text_69">
      <!-- 2000 -->
      <g transform="translate(389.84793 837.198437)scale(0.1 -0.1)">
       <use xlink:href="#DejaVuSans-50"/>
       <use x="63.623047" xlink:href="#DejaVuSans-48"/>
       <use x="127.246094" xlink:href="#DejaVuSans-48"/>
       <use x="190.869141" xlink:href="#DejaVuSans-48"/>
      </g>
     </g>
    </g>
    <g id="xtick_29">
     <g id="line2d_75">
      <g>
       <use style="stroke:#000000;stroke-width:0.8;" x="442.40337" xlink:href="#m8f8cb4360e" y="822.6"/>
      </g>
     </g>
     <g id="text_70">
      <!-- 3000 -->
      <g transform="translate(429.67837 837.198437)scale(0.1 -0.1)">
       <use xlink:href="#DejaVuSans-51"/>
       <use x="63.623047" xlink:href="#DejaVuSans-48"/>
       <use x="127.246094" xlink:href="#DejaVuSans-48"/>
       <use x="190.869141" xlink:href="#DejaVuSans-48"/>
      </g>
     </g>
    </g>
   </g>
   <g id="matplotlib.axis_12">
    <g id="ytick_32">
     <g id="line2d_76">
      <g>
       <use style="stroke:#000000;stroke-width:0.8;" x="274.854076" xlink:href="#m6d273ca9f3" y="757.577748"/>
      </g>
     </g>
     <g id="text_71">
      <!-- 0.0001 -->
      <g transform="translate(232.863451 761.376967)scale(0.1 -0.1)">
       <use xlink:href="#DejaVuSans-48"/>
       <use x="63.623047" xlink:href="#DejaVuSans-46"/>
       <use x="95.410156" xlink:href="#DejaVuSans-48"/>
       <use x="159.033203" xlink:href="#DejaVuSans-48"/>
       <use x="222.65625" xlink:href="#DejaVuSans-48"/>
       <use x="286.279297" xlink:href="#DejaVuSans-49"/>
      </g>
     </g>
    </g>
    <g id="ytick_33">
     <g id="line2d_77">
      <g>
       <use style="stroke:#000000;stroke-width:0.8;" x="274.854076" xlink:href="#m6d273ca9f3" y="677.278022"/>
      </g>
     </g>
     <g id="text_72">
      <!-- 0.0002 -->
      <g transform="translate(232.863451 681.077241)scale(0.1 -0.1)">
       <use xlink:href="#DejaVuSans-48"/>
       <use x="63.623047" xlink:href="#DejaVuSans-46"/>
       <use x="95.410156" xlink:href="#DejaVuSans-48"/>
       <use x="159.033203" xlink:href="#DejaVuSans-48"/>
       <use x="222.65625" xlink:href="#DejaVuSans-48"/>
       <use x="286.279297" xlink:href="#DejaVuSans-50"/>
      </g>
     </g>
    </g>
    <g id="ytick_34">
     <g id="line2d_78">
      <g>
       <use style="stroke:#000000;stroke-width:0.8;" x="274.854076" xlink:href="#m6d273ca9f3" y="596.978296"/>
      </g>
     </g>
     <g id="text_73">
      <!-- 0.0003 -->
      <g transform="translate(232.863451 600.777514)scale(0.1 -0.1)">
       <use xlink:href="#DejaVuSans-48"/>
       <use x="63.623047" xlink:href="#DejaVuSans-46"/>
       <use x="95.410156" xlink:href="#DejaVuSans-48"/>
       <use x="159.033203" xlink:href="#DejaVuSans-48"/>
       <use x="222.65625" xlink:href="#DejaVuSans-48"/>
       <use x="286.279297" xlink:href="#DejaVuSans-51"/>
      </g>
     </g>
    </g>
    <g id="ytick_35">
     <g id="line2d_79">
      <g>
       <use style="stroke:#000000;stroke-width:0.8;" x="274.854076" xlink:href="#m6d273ca9f3" y="516.678569"/>
      </g>
     </g>
     <g id="text_74">
      <!-- 0.0004 -->
      <g transform="translate(232.863451 520.477788)scale(0.1 -0.1)">
       <use xlink:href="#DejaVuSans-48"/>
       <use x="63.623047" xlink:href="#DejaVuSans-46"/>
       <use x="95.410156" xlink:href="#DejaVuSans-48"/>
       <use x="159.033203" xlink:href="#DejaVuSans-48"/>
       <use x="222.65625" xlink:href="#DejaVuSans-48"/>
       <use x="286.279297" xlink:href="#DejaVuSans-52"/>
      </g>
     </g>
    </g>
    <g id="text_75">
     <!-- Density -->
     <g transform="translate(226.783764 656.290412)rotate(-90)scale(0.1 -0.1)">
      <use xlink:href="#DejaVuSans-68"/>
      <use x="77.001953" xlink:href="#DejaVuSans-101"/>
      <use x="138.525391" xlink:href="#DejaVuSans-110"/>
      <use x="201.904297" xlink:href="#DejaVuSans-115"/>
      <use x="254.003906" xlink:href="#DejaVuSans-105"/>
      <use x="281.787109" xlink:href="#DejaVuSans-116"/>
      <use x="320.996094" xlink:href="#DejaVuSans-121"/>
     </g>
    </g>
   </g>
   <g id="line2d_80">
    <path clip-path="url(#pc2f6a59ab7)" d="M 283.124827 793.090572 
L 284.780633 785.044458 
L 286.60202 775.005801 
L 288.423406 763.667296 
L 290.410373 749.776752 
L 292.397341 734.296215 
L 294.549889 715.785897 
L 297.033598 692.355112 
L 299.848468 663.544551 
L 303.822402 620.240146 
L 309.452143 559.021385 
L 311.935852 534.406393 
L 313.922819 516.683809 
L 315.744205 502.401417 
L 317.234431 492.345711 
L 318.559076 484.775286 
L 319.71814 479.285087 
L 320.711623 475.464048 
L 321.705107 472.488663 
L 322.53301 470.670607 
L 323.195332 469.655759 
L 323.857655 469.035178 
L 324.354397 468.829659 
L 324.851138 468.847317 
L 325.34788 469.088056 
L 325.844622 469.551371 
L 326.506944 470.513714 
L 327.169267 471.866778 
L 327.99717 474.100482 
L 328.990653 477.560618 
L 329.984137 481.846756 
L 331.143201 487.848737 
L 332.467846 495.954931 
L 333.958071 506.538926 
L 335.613877 519.918682 
L 337.600845 537.871939 
L 340.084554 562.523812 
L 343.892907 602.956599 
L 348.860325 655.341675 
L 351.509615 680.964275 
L 353.662163 699.823726 
L 355.64913 715.341718 
L 357.470517 727.779012 
L 359.126323 737.489239 
L 360.616548 744.866821 
L 361.941193 750.310662 
L 363.100257 754.200067 
L 364.093741 756.879593 
L 365.087224 758.95382 
L 365.915127 760.220648 
L 366.74303 761.06957 
L 367.405353 761.449637 
L 368.067675 761.565861 
L 368.729997 761.420504 
L 369.39232 761.016223 
L 370.054642 760.356061 
L 370.882545 759.176285 
L 371.710448 757.609627 
L 372.703932 755.230972 
L 373.862996 751.789362 
L 375.02206 747.658308 
L 376.346705 742.135909 
L 377.83693 734.969169 
L 379.492736 725.927589 
L 381.479704 713.770663 
L 383.797832 698.132702 
L 386.943864 675.251804 
L 393.401507 627.888852 
L 395.719635 612.704617 
L 397.541022 602.077342 
L 399.196828 593.649008 
L 400.687053 587.214834 
L 402.011698 582.502527 
L 403.170762 579.209209 
L 404.164246 577.030636 
L 404.992149 575.682639 
L 405.820052 574.767612 
L 406.482374 574.350861 
L 407.144697 574.216132 
L 407.807019 574.36408 
L 408.469342 574.79442 
L 409.131664 575.505934 
L 409.959567 576.787383 
L 410.78747 578.498584 
L 411.780954 581.107409 
L 412.940018 584.893148 
L 414.099082 589.443382 
L 415.423727 595.524119 
L 416.913952 603.397913 
L 418.735339 614.33684 
L 420.887887 628.816808 
L 423.537176 648.342673 
L 427.842272 682.096412 
L 432.644109 719.252832 
L 435.458979 739.394586 
L 437.942688 755.647437 
L 440.260817 769.331604 
L 442.413365 780.671375 
L 444.400332 789.953264 
L 446.221718 797.478276 
L 448.043105 804.098275 
L 448.539847 805.752893 
L 448.539847 805.752893 
" style="fill:none;stroke:#8c564b;stroke-linecap:square;stroke-width:1.5;"/>
   </g>
   <g id="patch_33">
    <path d="M 274.854076 822.6 
L 274.854076 451.963636 
" style="fill:none;stroke:#000000;stroke-linecap:square;stroke-linejoin:miter;stroke-width:0.8;"/>
   </g>
   <g id="patch_34">
    <path d="M 456.810598 822.6 
L 456.810598 451.963636 
" style="fill:none;stroke:#000000;stroke-linecap:square;stroke-linejoin:miter;stroke-width:0.8;"/>
   </g>
   <g id="patch_35">
    <path d="M 274.854076 822.6 
L 456.810598 822.6 
" style="fill:none;stroke:#000000;stroke-linecap:square;stroke-linejoin:miter;stroke-width:0.8;"/>
   </g>
   <g id="patch_36">
    <path d="M 274.854076 451.963636 
L 456.810598 451.963636 
" style="fill:none;stroke:#000000;stroke-linecap:square;stroke-linejoin:miter;stroke-width:0.8;"/>
   </g>
   <g id="legend_6">
    <g id="patch_37">
     <path d="M 353.198098 474.919886 
L 449.810598 474.919886 
Q 451.810598 474.919886 451.810598 472.919886 
L 451.810598 458.963636 
Q 451.810598 456.963636 449.810598 456.963636 
L 353.198098 456.963636 
Q 351.198098 456.963636 351.198098 458.963636 
L 351.198098 472.919886 
Q 351.198098 474.919886 353.198098 474.919886 
z
" style="fill:#ffffff;opacity:0.8;stroke:#cccccc;stroke-linejoin:miter;"/>
    </g>
    <g id="line2d_81">
     <path d="M 355.198098 465.062074 
L 375.198098 465.062074 
" style="fill:none;stroke:#8c564b;stroke-linecap:square;stroke-width:1.5;"/>
    </g>
    <g id="line2d_82"/>
    <g id="text_76">
     <!-- HCSR04_006 -->
     <g transform="translate(383.198098 468.562074)scale(0.1 -0.1)">
      <use xlink:href="#DejaVuSans-72"/>
      <use x="75.195312" xlink:href="#DejaVuSans-67"/>
      <use x="145.019531" xlink:href="#DejaVuSans-83"/>
      <use x="208.496094" xlink:href="#DejaVuSans-82"/>
      <use x="277.978516" xlink:href="#DejaVuSans-48"/>
      <use x="341.601562" xlink:href="#DejaVuSans-52"/>
      <use x="405.224609" xlink:href="#DejaVuSans-95"/>
      <use x="455.224609" xlink:href="#DejaVuSans-48"/>
      <use x="518.847656" xlink:href="#DejaVuSans-48"/>
      <use x="582.470703" xlink:href="#DejaVuSans-54"/>
     </g>
    </g>
   </g>
  </g>
  <g id="axes_7">
   <g id="patch_38">
    <path d="M 493.201902 822.6 
L 675.158424 822.6 
L 675.158424 451.963636 
L 493.201902 451.963636 
z
" style="fill:#ffffff;"/>
   </g>
   <g id="matplotlib.axis_13">
    <g id="xtick_30">
     <g id="line2d_83">
      <g>
       <use style="stroke:#000000;stroke-width:0.8;" x="503.63851" xlink:href="#m8f8cb4360e" y="822.6"/>
      </g>
     </g>
     <g id="text_77">
      <!-- −50 -->
      <g transform="translate(493.086166 837.198437)scale(0.1 -0.1)">
       <use xlink:href="#DejaVuSans-8722"/>
       <use x="83.789062" xlink:href="#DejaVuSans-53"/>
       <use x="147.412109" xlink:href="#DejaVuSans-48"/>
      </g>
     </g>
    </g>
    <g id="xtick_31">
     <g id="line2d_84">
      <g>
       <use style="stroke:#000000;stroke-width:0.8;" x="539.796379" xlink:href="#m8f8cb4360e" y="822.6"/>
      </g>
     </g>
     <g id="text_78">
      <!-- 0 -->
      <g transform="translate(536.615129 837.198437)scale(0.1 -0.1)">
       <use xlink:href="#DejaVuSans-48"/>
      </g>
     </g>
    </g>
    <g id="xtick_32">
     <g id="line2d_85">
      <g>
       <use style="stroke:#000000;stroke-width:0.8;" x="575.954248" xlink:href="#m8f8cb4360e" y="822.6"/>
      </g>
     </g>
     <g id="text_79">
      <!-- 50 -->
      <g transform="translate(569.591748 837.198437)scale(0.1 -0.1)">
       <use xlink:href="#DejaVuSans-53"/>
       <use x="63.623047" xlink:href="#DejaVuSans-48"/>
      </g>
     </g>
    </g>
    <g id="xtick_33">
     <g id="line2d_86">
      <g>
       <use style="stroke:#000000;stroke-width:0.8;" x="612.112117" xlink:href="#m8f8cb4360e" y="822.6"/>
      </g>
     </g>
     <g id="text_80">
      <!-- 100 -->
      <g transform="translate(602.568367 837.198437)scale(0.1 -0.1)">
       <use xlink:href="#DejaVuSans-49"/>
       <use x="63.623047" xlink:href="#DejaVuSans-48"/>
       <use x="127.246094" xlink:href="#DejaVuSans-48"/>
      </g>
     </g>
    </g>
    <g id="xtick_34">
     <g id="line2d_87">
      <g>
       <use style="stroke:#000000;stroke-width:0.8;" x="648.269986" xlink:href="#m8f8cb4360e" y="822.6"/>
      </g>
     </g>
     <g id="text_81">
      <!-- 150 -->
      <g transform="translate(638.726236 837.198437)scale(0.1 -0.1)">
       <use xlink:href="#DejaVuSans-49"/>
       <use x="63.623047" xlink:href="#DejaVuSans-53"/>
       <use x="127.246094" xlink:href="#DejaVuSans-48"/>
      </g>
     </g>
    </g>
   </g>
   <g id="matplotlib.axis_14">
    <g id="ytick_36">
     <g id="line2d_88">
      <g>
       <use style="stroke:#000000;stroke-width:0.8;" x="493.201902" xlink:href="#m6d273ca9f3" y="805.756328"/>
      </g>
     </g>
     <g id="text_82">
      <!-- 0.0000 -->
      <g transform="translate(451.211277 809.555547)scale(0.1 -0.1)">
       <use xlink:href="#DejaVuSans-48"/>
       <use x="63.623047" xlink:href="#DejaVuSans-46"/>
       <use x="95.410156" xlink:href="#DejaVuSans-48"/>
       <use x="159.033203" xlink:href="#DejaVuSans-48"/>
       <use x="222.65625" xlink:href="#DejaVuSans-48"/>
       <use x="286.279297" xlink:href="#DejaVuSans-48"/>
      </g>
     </g>
    </g>
    <g id="ytick_37">
     <g id="line2d_89">
      <g>
       <use style="stroke:#000000;stroke-width:0.8;" x="493.201902" xlink:href="#m6d273ca9f3" y="763.301485"/>
      </g>
     </g>
     <g id="text_83">
      <!-- 0.0025 -->
      <g transform="translate(451.211277 767.100703)scale(0.1 -0.1)">
       <use xlink:href="#DejaVuSans-48"/>
       <use x="63.623047" xlink:href="#DejaVuSans-46"/>
       <use x="95.410156" xlink:href="#DejaVuSans-48"/>
       <use x="159.033203" xlink:href="#DejaVuSans-48"/>
       <use x="222.65625" xlink:href="#DejaVuSans-50"/>
       <use x="286.279297" xlink:href="#DejaVuSans-53"/>
      </g>
     </g>
    </g>
    <g id="ytick_38">
     <g id="line2d_90">
      <g>
       <use style="stroke:#000000;stroke-width:0.8;" x="493.201902" xlink:href="#m6d273ca9f3" y="720.846641"/>
      </g>
     </g>
     <g id="text_84">
      <!-- 0.0050 -->
      <g transform="translate(451.211277 724.64586)scale(0.1 -0.1)">
       <use xlink:href="#DejaVuSans-48"/>
       <use x="63.623047" xlink:href="#DejaVuSans-46"/>
       <use x="95.410156" xlink:href="#DejaVuSans-48"/>
       <use x="159.033203" xlink:href="#DejaVuSans-48"/>
       <use x="222.65625" xlink:href="#DejaVuSans-53"/>
       <use x="286.279297" xlink:href="#DejaVuSans-48"/>
      </g>
     </g>
    </g>
    <g id="ytick_39">
     <g id="line2d_91">
      <g>
       <use style="stroke:#000000;stroke-width:0.8;" x="493.201902" xlink:href="#m6d273ca9f3" y="678.391798"/>
      </g>
     </g>
     <g id="text_85">
      <!-- 0.0075 -->
      <g transform="translate(451.211277 682.191016)scale(0.1 -0.1)">
       <use xlink:href="#DejaVuSans-48"/>
       <use x="63.623047" xlink:href="#DejaVuSans-46"/>
       <use x="95.410156" xlink:href="#DejaVuSans-48"/>
       <use x="159.033203" xlink:href="#DejaVuSans-48"/>
       <use x="222.65625" xlink:href="#DejaVuSans-55"/>
       <use x="286.279297" xlink:href="#DejaVuSans-53"/>
      </g>
     </g>
    </g>
    <g id="ytick_40">
     <g id="line2d_92">
      <g>
       <use style="stroke:#000000;stroke-width:0.8;" x="493.201902" xlink:href="#m6d273ca9f3" y="635.936954"/>
      </g>
     </g>
     <g id="text_86">
      <!-- 0.0100 -->
      <g transform="translate(451.211277 639.736173)scale(0.1 -0.1)">
       <use xlink:href="#DejaVuSans-48"/>
       <use x="63.623047" xlink:href="#DejaVuSans-46"/>
       <use x="95.410156" xlink:href="#DejaVuSans-48"/>
       <use x="159.033203" xlink:href="#DejaVuSans-49"/>
       <use x="222.65625" xlink:href="#DejaVuSans-48"/>
       <use x="286.279297" xlink:href="#DejaVuSans-48"/>
      </g>
     </g>
    </g>
    <g id="ytick_41">
     <g id="line2d_93">
      <g>
       <use style="stroke:#000000;stroke-width:0.8;" x="493.201902" xlink:href="#m6d273ca9f3" y="593.482111"/>
      </g>
     </g>
     <g id="text_87">
      <!-- 0.0125 -->
      <g transform="translate(451.211277 597.281329)scale(0.1 -0.1)">
       <use xlink:href="#DejaVuSans-48"/>
       <use x="63.623047" xlink:href="#DejaVuSans-46"/>
       <use x="95.410156" xlink:href="#DejaVuSans-48"/>
       <use x="159.033203" xlink:href="#DejaVuSans-49"/>
       <use x="222.65625" xlink:href="#DejaVuSans-50"/>
       <use x="286.279297" xlink:href="#DejaVuSans-53"/>
      </g>
     </g>
    </g>
    <g id="ytick_42">
     <g id="line2d_94">
      <g>
       <use style="stroke:#000000;stroke-width:0.8;" x="493.201902" xlink:href="#m6d273ca9f3" y="551.027267"/>
      </g>
     </g>
     <g id="text_88">
      <!-- 0.0150 -->
      <g transform="translate(451.211277 554.826486)scale(0.1 -0.1)">
       <use xlink:href="#DejaVuSans-48"/>
       <use x="63.623047" xlink:href="#DejaVuSans-46"/>
       <use x="95.410156" xlink:href="#DejaVuSans-48"/>
       <use x="159.033203" xlink:href="#DejaVuSans-49"/>
       <use x="222.65625" xlink:href="#DejaVuSans-53"/>
       <use x="286.279297" xlink:href="#DejaVuSans-48"/>
      </g>
     </g>
    </g>
    <g id="ytick_43">
     <g id="line2d_95">
      <g>
       <use style="stroke:#000000;stroke-width:0.8;" x="493.201902" xlink:href="#m6d273ca9f3" y="508.572423"/>
      </g>
     </g>
     <g id="text_89">
      <!-- 0.0175 -->
      <g transform="translate(451.211277 512.371642)scale(0.1 -0.1)">
       <use xlink:href="#DejaVuSans-48"/>
       <use x="63.623047" xlink:href="#DejaVuSans-46"/>
       <use x="95.410156" xlink:href="#DejaVuSans-48"/>
       <use x="159.033203" xlink:href="#DejaVuSans-49"/>
       <use x="222.65625" xlink:href="#DejaVuSans-55"/>
       <use x="286.279297" xlink:href="#DejaVuSans-53"/>
      </g>
     </g>
    </g>
    <g id="ytick_44">
     <g id="line2d_96">
      <g>
       <use style="stroke:#000000;stroke-width:0.8;" x="493.201902" xlink:href="#m6d273ca9f3" y="466.11758"/>
      </g>
     </g>
     <g id="text_90">
      <!-- 0.0200 -->
      <g transform="translate(451.211277 469.916799)scale(0.1 -0.1)">
       <use xlink:href="#DejaVuSans-48"/>
       <use x="63.623047" xlink:href="#DejaVuSans-46"/>
       <use x="95.410156" xlink:href="#DejaVuSans-48"/>
       <use x="159.033203" xlink:href="#DejaVuSans-50"/>
       <use x="222.65625" xlink:href="#DejaVuSans-48"/>
       <use x="286.279297" xlink:href="#DejaVuSans-48"/>
      </g>
     </g>
    </g>
    <g id="text_91">
     <!-- Density -->
     <g transform="translate(445.13159 656.290412)rotate(-90)scale(0.1 -0.1)">
      <use xlink:href="#DejaVuSans-68"/>
      <use x="77.001953" xlink:href="#DejaVuSans-101"/>
      <use x="138.525391" xlink:href="#DejaVuSans-110"/>
      <use x="201.904297" xlink:href="#DejaVuSans-115"/>
      <use x="254.003906" xlink:href="#DejaVuSans-105"/>
      <use x="281.787109" xlink:href="#DejaVuSans-116"/>
      <use x="320.996094" xlink:href="#DejaVuSans-121"/>
     </g>
    </g>
   </g>
   <g id="line2d_97">
    <path clip-path="url(#p604edc0f4e)" d="M 501.472653 805.752893 
L 511.73865 805.631121 
L 515.712585 805.373068 
L 518.527455 804.984202 
L 520.845583 804.457968 
L 522.998131 803.747228 
L 524.985098 802.865343 
L 526.972066 801.748334 
L 529.124613 800.278359 
L 531.608322 798.302232 
L 540.384094 791.022071 
L 542.867803 789.417303 
L 549.159866 785.544343 
L 550.815672 784.137966 
L 552.305897 782.573694 
L 553.796123 780.664581 
L 555.286348 778.367306 
L 556.776574 775.658171 
L 558.43238 772.162993 
L 560.253766 767.763417 
L 562.406314 761.928059 
L 565.386765 753.107324 
L 569.691861 740.380683 
L 571.678828 735.226253 
L 573.169053 731.913644 
L 574.493698 729.467 
L 575.652762 727.761541 
L 576.646246 726.646475 
L 577.639729 725.861952 
L 578.467632 725.461545 
L 579.295535 725.286834 
L 580.123438 725.328407 
L 580.951341 725.571889 
L 581.944825 726.102974 
L 583.103889 726.996819 
L 584.594115 728.44664 
L 587.740146 731.620897 
L 588.89921 732.424517 
L 589.727113 732.745218 
L 590.389436 732.805543 
L 591.051758 732.658477 
L 591.71408 732.272964 
L 592.376403 731.617511 
L 593.038725 730.660353 
L 593.866628 728.99115 
L 594.694531 726.739098 
L 595.522434 723.843841 
L 596.515918 719.439252 
L 597.509401 713.932842 
L 598.502885 707.24415 
L 599.661949 697.862456 
L 600.821013 686.722724 
L 602.145658 671.828415 
L 603.635884 652.429006 
L 605.45727 625.399279 
L 607.940979 584.587988 
L 611.418172 527.552831 
L 612.908397 506.440548 
L 614.067461 492.575138 
L 615.060945 482.911555 
L 615.888848 476.644129 
L 616.55117 472.897924 
L 617.213493 470.338723 
L 617.710235 469.223373 
L 618.041396 468.869676 
L 618.372557 468.830708 
L 618.703718 469.107818 
L 619.034879 469.701383 
L 619.531621 471.18352 
L 620.028363 473.370029 
L 620.690685 477.361511 
L 621.518588 484.023214 
L 622.512072 494.325098 
L 623.671136 509.213475 
L 624.995781 529.423112 
L 626.651587 558.262229 
L 629.632038 614.964596 
L 632.446908 667.058761 
L 634.268295 697.112516 
L 635.924101 720.961063 
L 637.414326 739.323955 
L 638.738971 753.164623 
L 640.063616 764.769841 
L 641.38826 774.310895 
L 642.547325 781.136643 
L 643.706389 786.710168 
L 644.865453 791.19712 
L 646.024517 794.759214 
L 647.183581 797.548364 
L 648.342646 799.702741 
L 649.50171 801.344531 
L 650.660774 802.579104 
L 651.819838 803.495259 
L 653.144483 804.245715 
L 654.634708 804.814346 
L 656.456095 805.241364 
L 658.774224 805.527463 
L 662.085836 805.690154 
L 666.887673 805.747113 
L 666.887673 805.747113 
" style="fill:none;stroke:#e377c2;stroke-linecap:square;stroke-width:1.5;"/>
   </g>
   <g id="patch_39">
    <path d="M 493.201902 822.6 
L 493.201902 451.963636 
" style="fill:none;stroke:#000000;stroke-linecap:square;stroke-linejoin:miter;stroke-width:0.8;"/>
   </g>
   <g id="patch_40">
    <path d="M 675.158424 822.6 
L 675.158424 451.963636 
" style="fill:none;stroke:#000000;stroke-linecap:square;stroke-linejoin:miter;stroke-width:0.8;"/>
   </g>
   <g id="patch_41">
    <path d="M 493.201902 822.6 
L 675.158424 822.6 
" style="fill:none;stroke:#000000;stroke-linecap:square;stroke-linejoin:miter;stroke-width:0.8;"/>
   </g>
   <g id="patch_42">
    <path d="M 493.201902 451.963636 
L 675.158424 451.963636 
" style="fill:none;stroke:#000000;stroke-linecap:square;stroke-linejoin:miter;stroke-width:0.8;"/>
   </g>
   <g id="legend_7">
    <g id="patch_43">
     <path d="M 500.201902 474.919886 
L 596.814402 474.919886 
Q 598.814402 474.919886 598.814402 472.919886 
L 598.814402 458.963636 
Q 598.814402 456.963636 596.814402 456.963636 
L 500.201902 456.963636 
Q 498.201902 456.963636 498.201902 458.963636 
L 498.201902 472.919886 
Q 498.201902 474.919886 500.201902 474.919886 
z
" style="fill:#ffffff;opacity:0.8;stroke:#cccccc;stroke-linejoin:miter;"/>
    </g>
    <g id="line2d_98">
     <path d="M 502.201902 465.062074 
L 522.201902 465.062074 
" style="fill:none;stroke:#e377c2;stroke-linecap:square;stroke-width:1.5;"/>
    </g>
    <g id="line2d_99"/>
    <g id="text_92">
     <!-- HCSR04_007 -->
     <g transform="translate(530.201902 468.562074)scale(0.1 -0.1)">
      <use xlink:href="#DejaVuSans-72"/>
      <use x="75.195312" xlink:href="#DejaVuSans-67"/>
      <use x="145.019531" xlink:href="#DejaVuSans-83"/>
      <use x="208.496094" xlink:href="#DejaVuSans-82"/>
      <use x="277.978516" xlink:href="#DejaVuSans-48"/>
      <use x="341.601562" xlink:href="#DejaVuSans-52"/>
      <use x="405.224609" xlink:href="#DejaVuSans-95"/>
      <use x="455.224609" xlink:href="#DejaVuSans-48"/>
      <use x="518.847656" xlink:href="#DejaVuSans-48"/>
      <use x="582.470703" xlink:href="#DejaVuSans-55"/>
     </g>
    </g>
   </g>
  </g>
 </g>
 <defs>
  <clipPath id="pac3d898b18">
   <rect height="370.636364" width="181.956522" x="56.50625" y="7.2"/>
  </clipPath>
  <clipPath id="p31166bbf74">
   <rect height="370.636364" width="181.956522" x="274.854076" y="7.2"/>
  </clipPath>
  <clipPath id="p2f502e5893">
   <rect height="370.636364" width="181.956522" x="493.201902" y="7.2"/>
  </clipPath>
  <clipPath id="p91d82b8b69">
   <rect height="370.636364" width="181.956522" x="711.549728" y="7.2"/>
  </clipPath>
  <clipPath id="p3c5f5c0e56">
   <rect height="370.636364" width="181.956522" x="56.50625" y="451.963636"/>
  </clipPath>
  <clipPath id="pc2f6a59ab7">
   <rect height="370.636364" width="181.956522" x="274.854076" y="451.963636"/>
  </clipPath>
  <clipPath id="p604edc0f4e">
   <rect height="370.636364" width="181.956522" x="493.201902" y="451.963636"/>
  </clipPath>
 </defs>
</svg>
